M48
; DRILL file KiCad 10.0.5 date 2026-09-02T19:26:38
; FORMAT={-:-/ absolute / inch / decimal}
; #@! TF.CreationDate,2026-09-02T19:26:38+05:30
; #@! TF.GenerationSoftware,Kicad,Pcbnew,10.0.5
; #@! TF.FileFunction,MixedPlating,1,2
FMAT,2
INCH
; #@! TA.AperFunction,Plated,PTH,ComponentDrill
T1C0.0394
; #@! TA.AperFunction,Plated,PTH,ComponentDrill
T2C0.0512
; #@! TA.AperFunction,Plated,PTH,ComponentDrill
T3C0.0591
; #@! TA.AperFunction,Plated,PTH,ComponentDrill
T4C0.1772
; #@! TA.AperFunction,NonPlated,NPTH,ComponentDrill
T5C0.1260
; #@! TA.AperFunction,NonPlated,NPTH,ComponentDrill
T6C0.1732
%
G90
G05
T1
X2.8988Y-3.122
X2.8988Y-3.222
X2.8988Y-3.322
X3.1969Y-4.0539
X3.1969Y-4.6051
X3.6213Y-2.9331
X3.6213Y-3.6024
X3.8335Y-2.6343
X3.9335Y-2.6343
X4.0335Y-2.6343
X5.1961Y-2.9331
X5.1961Y-3.6024
X5.4409Y-4.0539
X5.4409Y-4.6051
T2
X2.9043Y-4.2504
X2.9043Y-4.4472
T3
X5.7406Y-2.0772
X5.9067Y-4.2092
X5.915Y-3.4599
X5.9374Y-2.0772
X6.1035Y-4.2092
X6.1118Y-3.4599
T4
X4.7567Y-1.7886
X4.7567Y-2.072
X5.6535Y-2.7701
X5.937Y-2.7701
T5
X2.8951Y-4.7817
X2.9031Y-1.1272
X6.0813Y-4.7813
X6.0978Y-1.127
T6
X3.0657Y-1.3142
X3.0657Y-2.6331
X3.7424Y-1.9736
M30
