%TF.GenerationSoftware,KiCad,Pcbnew,10.0.5*%
%TF.CreationDate,2026-09-02T19:23:46+05:30*%
%TF.ProjectId,Rlaarlo_PDB,526c6161-726c-46f5-9f50-44422e6b6963,rev?*%
%TF.SameCoordinates,Original*%
%TF.FileFunction,Legend,Top*%
%TF.FilePolarity,Positive*%
%FSLAX46Y46*%
G04 Gerber Fmt 4.6, Leading zero omitted, Abs format (unit mm)*
G04 Created by KiCad (PCBNEW 10.0.5) date 2026-09-02 19:23:46*
%MOMM*%
%LPD*%
G01*
G04 APERTURE LIST*
%ADD10C,0.100000*%
%ADD11C,0.120000*%
G04 APERTURE END LIST*
D10*
X72099598Y-101762419D02*
X72099598Y-102476704D01*
X72099598Y-102476704D02*
X72051979Y-102619561D01*
X72051979Y-102619561D02*
X71956741Y-102714800D01*
X71956741Y-102714800D02*
X71813884Y-102762419D01*
X71813884Y-102762419D02*
X71718646Y-102762419D01*
X72956741Y-102714800D02*
X72861503Y-102762419D01*
X72861503Y-102762419D02*
X72671027Y-102762419D01*
X72671027Y-102762419D02*
X72575789Y-102714800D01*
X72575789Y-102714800D02*
X72528170Y-102619561D01*
X72528170Y-102619561D02*
X72528170Y-102238609D01*
X72528170Y-102238609D02*
X72575789Y-102143371D01*
X72575789Y-102143371D02*
X72671027Y-102095752D01*
X72671027Y-102095752D02*
X72861503Y-102095752D01*
X72861503Y-102095752D02*
X72956741Y-102143371D01*
X72956741Y-102143371D02*
X73004360Y-102238609D01*
X73004360Y-102238609D02*
X73004360Y-102333847D01*
X73004360Y-102333847D02*
X72528170Y-102429085D01*
X73385313Y-102714800D02*
X73480551Y-102762419D01*
X73480551Y-102762419D02*
X73671027Y-102762419D01*
X73671027Y-102762419D02*
X73766265Y-102714800D01*
X73766265Y-102714800D02*
X73813884Y-102619561D01*
X73813884Y-102619561D02*
X73813884Y-102571942D01*
X73813884Y-102571942D02*
X73766265Y-102476704D01*
X73766265Y-102476704D02*
X73671027Y-102429085D01*
X73671027Y-102429085D02*
X73528170Y-102429085D01*
X73528170Y-102429085D02*
X73432932Y-102381466D01*
X73432932Y-102381466D02*
X73385313Y-102286228D01*
X73385313Y-102286228D02*
X73385313Y-102238609D01*
X73385313Y-102238609D02*
X73432932Y-102143371D01*
X73432932Y-102143371D02*
X73528170Y-102095752D01*
X73528170Y-102095752D02*
X73671027Y-102095752D01*
X73671027Y-102095752D02*
X73766265Y-102143371D01*
X74099599Y-102095752D02*
X74480551Y-102095752D01*
X74242456Y-101762419D02*
X74242456Y-102619561D01*
X74242456Y-102619561D02*
X74290075Y-102714800D01*
X74290075Y-102714800D02*
X74385313Y-102762419D01*
X74385313Y-102762419D02*
X74480551Y-102762419D01*
X74766266Y-102714800D02*
X74861504Y-102762419D01*
X74861504Y-102762419D02*
X75051980Y-102762419D01*
X75051980Y-102762419D02*
X75147218Y-102714800D01*
X75147218Y-102714800D02*
X75194837Y-102619561D01*
X75194837Y-102619561D02*
X75194837Y-102571942D01*
X75194837Y-102571942D02*
X75147218Y-102476704D01*
X75147218Y-102476704D02*
X75051980Y-102429085D01*
X75051980Y-102429085D02*
X74909123Y-102429085D01*
X74909123Y-102429085D02*
X74813885Y-102381466D01*
X74813885Y-102381466D02*
X74766266Y-102286228D01*
X74766266Y-102286228D02*
X74766266Y-102238609D01*
X74766266Y-102238609D02*
X74813885Y-102143371D01*
X74813885Y-102143371D02*
X74909123Y-102095752D01*
X74909123Y-102095752D02*
X75051980Y-102095752D01*
X75051980Y-102095752D02*
X75147218Y-102143371D01*
X75766266Y-102762419D02*
X75671028Y-102714800D01*
X75671028Y-102714800D02*
X75623409Y-102667180D01*
X75623409Y-102667180D02*
X75575790Y-102571942D01*
X75575790Y-102571942D02*
X75575790Y-102286228D01*
X75575790Y-102286228D02*
X75623409Y-102190990D01*
X75623409Y-102190990D02*
X75671028Y-102143371D01*
X75671028Y-102143371D02*
X75766266Y-102095752D01*
X75766266Y-102095752D02*
X75909123Y-102095752D01*
X75909123Y-102095752D02*
X76004361Y-102143371D01*
X76004361Y-102143371D02*
X76051980Y-102190990D01*
X76051980Y-102190990D02*
X76099599Y-102286228D01*
X76099599Y-102286228D02*
X76099599Y-102571942D01*
X76099599Y-102571942D02*
X76051980Y-102667180D01*
X76051980Y-102667180D02*
X76004361Y-102714800D01*
X76004361Y-102714800D02*
X75909123Y-102762419D01*
X75909123Y-102762419D02*
X75766266Y-102762419D01*
X76528171Y-102095752D02*
X76528171Y-102762419D01*
X76528171Y-102190990D02*
X76575790Y-102143371D01*
X76575790Y-102143371D02*
X76671028Y-102095752D01*
X76671028Y-102095752D02*
X76813885Y-102095752D01*
X76813885Y-102095752D02*
X76909123Y-102143371D01*
X76909123Y-102143371D02*
X76956742Y-102238609D01*
X76956742Y-102238609D02*
X76956742Y-102762419D01*
X74256265Y-75264800D02*
X74399122Y-75312419D01*
X74399122Y-75312419D02*
X74637217Y-75312419D01*
X74637217Y-75312419D02*
X74732455Y-75264800D01*
X74732455Y-75264800D02*
X74780074Y-75217180D01*
X74780074Y-75217180D02*
X74827693Y-75121942D01*
X74827693Y-75121942D02*
X74827693Y-75026704D01*
X74827693Y-75026704D02*
X74780074Y-74931466D01*
X74780074Y-74931466D02*
X74732455Y-74883847D01*
X74732455Y-74883847D02*
X74637217Y-74836228D01*
X74637217Y-74836228D02*
X74446741Y-74788609D01*
X74446741Y-74788609D02*
X74351503Y-74740990D01*
X74351503Y-74740990D02*
X74303884Y-74693371D01*
X74303884Y-74693371D02*
X74256265Y-74598133D01*
X74256265Y-74598133D02*
X74256265Y-74502895D01*
X74256265Y-74502895D02*
X74303884Y-74407657D01*
X74303884Y-74407657D02*
X74351503Y-74360038D01*
X74351503Y-74360038D02*
X74446741Y-74312419D01*
X74446741Y-74312419D02*
X74684836Y-74312419D01*
X74684836Y-74312419D02*
X74827693Y-74360038D01*
X75637217Y-75264800D02*
X75541979Y-75312419D01*
X75541979Y-75312419D02*
X75351503Y-75312419D01*
X75351503Y-75312419D02*
X75256265Y-75264800D01*
X75256265Y-75264800D02*
X75208646Y-75169561D01*
X75208646Y-75169561D02*
X75208646Y-74788609D01*
X75208646Y-74788609D02*
X75256265Y-74693371D01*
X75256265Y-74693371D02*
X75351503Y-74645752D01*
X75351503Y-74645752D02*
X75541979Y-74645752D01*
X75541979Y-74645752D02*
X75637217Y-74693371D01*
X75637217Y-74693371D02*
X75684836Y-74788609D01*
X75684836Y-74788609D02*
X75684836Y-74883847D01*
X75684836Y-74883847D02*
X75208646Y-74979085D01*
X76113408Y-75312419D02*
X76113408Y-74645752D01*
X76113408Y-74836228D02*
X76161027Y-74740990D01*
X76161027Y-74740990D02*
X76208646Y-74693371D01*
X76208646Y-74693371D02*
X76303884Y-74645752D01*
X76303884Y-74645752D02*
X76399122Y-74645752D01*
X76637218Y-74645752D02*
X76875313Y-75312419D01*
X76875313Y-75312419D02*
X77113408Y-74645752D01*
X77637218Y-75312419D02*
X77541980Y-75264800D01*
X77541980Y-75264800D02*
X77494361Y-75217180D01*
X77494361Y-75217180D02*
X77446742Y-75121942D01*
X77446742Y-75121942D02*
X77446742Y-74836228D01*
X77446742Y-74836228D02*
X77494361Y-74740990D01*
X77494361Y-74740990D02*
X77541980Y-74693371D01*
X77541980Y-74693371D02*
X77637218Y-74645752D01*
X77637218Y-74645752D02*
X77780075Y-74645752D01*
X77780075Y-74645752D02*
X77875313Y-74693371D01*
X77875313Y-74693371D02*
X77922932Y-74740990D01*
X77922932Y-74740990D02*
X77970551Y-74836228D01*
X77970551Y-74836228D02*
X77970551Y-75121942D01*
X77970551Y-75121942D02*
X77922932Y-75217180D01*
X77922932Y-75217180D02*
X77875313Y-75264800D01*
X77875313Y-75264800D02*
X77780075Y-75312419D01*
X77780075Y-75312419D02*
X77637218Y-75312419D01*
X140858170Y-85997356D02*
X141001027Y-86044975D01*
X141001027Y-86044975D02*
X141239122Y-86044975D01*
X141239122Y-86044975D02*
X141334360Y-85997356D01*
X141334360Y-85997356D02*
X141381979Y-85949736D01*
X141381979Y-85949736D02*
X141429598Y-85854498D01*
X141429598Y-85854498D02*
X141429598Y-85759260D01*
X141429598Y-85759260D02*
X141381979Y-85664022D01*
X141381979Y-85664022D02*
X141334360Y-85616403D01*
X141334360Y-85616403D02*
X141239122Y-85568784D01*
X141239122Y-85568784D02*
X141048646Y-85521165D01*
X141048646Y-85521165D02*
X140953408Y-85473546D01*
X140953408Y-85473546D02*
X140905789Y-85425927D01*
X140905789Y-85425927D02*
X140858170Y-85330689D01*
X140858170Y-85330689D02*
X140858170Y-85235451D01*
X140858170Y-85235451D02*
X140905789Y-85140213D01*
X140905789Y-85140213D02*
X140953408Y-85092594D01*
X140953408Y-85092594D02*
X141048646Y-85044975D01*
X141048646Y-85044975D02*
X141286741Y-85044975D01*
X141286741Y-85044975D02*
X141429598Y-85092594D01*
X141762932Y-85044975D02*
X142001027Y-86044975D01*
X142001027Y-86044975D02*
X142191503Y-85330689D01*
X142191503Y-85330689D02*
X142381979Y-86044975D01*
X142381979Y-86044975D02*
X142620075Y-85044975D01*
X140096265Y-87607300D02*
X140239122Y-87654919D01*
X140239122Y-87654919D02*
X140477217Y-87654919D01*
X140477217Y-87654919D02*
X140572455Y-87607300D01*
X140572455Y-87607300D02*
X140620074Y-87559680D01*
X140620074Y-87559680D02*
X140667693Y-87464442D01*
X140667693Y-87464442D02*
X140667693Y-87369204D01*
X140667693Y-87369204D02*
X140620074Y-87273966D01*
X140620074Y-87273966D02*
X140572455Y-87226347D01*
X140572455Y-87226347D02*
X140477217Y-87178728D01*
X140477217Y-87178728D02*
X140286741Y-87131109D01*
X140286741Y-87131109D02*
X140191503Y-87083490D01*
X140191503Y-87083490D02*
X140143884Y-87035871D01*
X140143884Y-87035871D02*
X140096265Y-86940633D01*
X140096265Y-86940633D02*
X140096265Y-86845395D01*
X140096265Y-86845395D02*
X140143884Y-86750157D01*
X140143884Y-86750157D02*
X140191503Y-86702538D01*
X140191503Y-86702538D02*
X140286741Y-86654919D01*
X140286741Y-86654919D02*
X140524836Y-86654919D01*
X140524836Y-86654919D02*
X140667693Y-86702538D01*
X141477217Y-87607300D02*
X141381979Y-87654919D01*
X141381979Y-87654919D02*
X141191503Y-87654919D01*
X141191503Y-87654919D02*
X141096265Y-87607300D01*
X141096265Y-87607300D02*
X141048646Y-87512061D01*
X141048646Y-87512061D02*
X141048646Y-87131109D01*
X141048646Y-87131109D02*
X141096265Y-87035871D01*
X141096265Y-87035871D02*
X141191503Y-86988252D01*
X141191503Y-86988252D02*
X141381979Y-86988252D01*
X141381979Y-86988252D02*
X141477217Y-87035871D01*
X141477217Y-87035871D02*
X141524836Y-87131109D01*
X141524836Y-87131109D02*
X141524836Y-87226347D01*
X141524836Y-87226347D02*
X141048646Y-87321585D01*
X141953408Y-87654919D02*
X141953408Y-86988252D01*
X141953408Y-87178728D02*
X142001027Y-87083490D01*
X142001027Y-87083490D02*
X142048646Y-87035871D01*
X142048646Y-87035871D02*
X142143884Y-86988252D01*
X142143884Y-86988252D02*
X142239122Y-86988252D01*
X142477218Y-86988252D02*
X142715313Y-87654919D01*
X142715313Y-87654919D02*
X142953408Y-86988252D01*
X143477218Y-87654919D02*
X143381980Y-87607300D01*
X143381980Y-87607300D02*
X143334361Y-87559680D01*
X143334361Y-87559680D02*
X143286742Y-87464442D01*
X143286742Y-87464442D02*
X143286742Y-87178728D01*
X143286742Y-87178728D02*
X143334361Y-87083490D01*
X143334361Y-87083490D02*
X143381980Y-87035871D01*
X143381980Y-87035871D02*
X143477218Y-86988252D01*
X143477218Y-86988252D02*
X143620075Y-86988252D01*
X143620075Y-86988252D02*
X143715313Y-87035871D01*
X143715313Y-87035871D02*
X143762932Y-87083490D01*
X143762932Y-87083490D02*
X143810551Y-87178728D01*
X143810551Y-87178728D02*
X143810551Y-87464442D01*
X143810551Y-87464442D02*
X143762932Y-87559680D01*
X143762932Y-87559680D02*
X143715313Y-87607300D01*
X143715313Y-87607300D02*
X143620075Y-87654919D01*
X143620075Y-87654919D02*
X143477218Y-87654919D01*
X142738170Y-103884912D02*
X142881027Y-103932531D01*
X142881027Y-103932531D02*
X143119122Y-103932531D01*
X143119122Y-103932531D02*
X143214360Y-103884912D01*
X143214360Y-103884912D02*
X143261979Y-103837292D01*
X143261979Y-103837292D02*
X143309598Y-103742054D01*
X143309598Y-103742054D02*
X143309598Y-103646816D01*
X143309598Y-103646816D02*
X143261979Y-103551578D01*
X143261979Y-103551578D02*
X143214360Y-103503959D01*
X143214360Y-103503959D02*
X143119122Y-103456340D01*
X143119122Y-103456340D02*
X142928646Y-103408721D01*
X142928646Y-103408721D02*
X142833408Y-103361102D01*
X142833408Y-103361102D02*
X142785789Y-103313483D01*
X142785789Y-103313483D02*
X142738170Y-103218245D01*
X142738170Y-103218245D02*
X142738170Y-103123007D01*
X142738170Y-103123007D02*
X142785789Y-103027769D01*
X142785789Y-103027769D02*
X142833408Y-102980150D01*
X142833408Y-102980150D02*
X142928646Y-102932531D01*
X142928646Y-102932531D02*
X143166741Y-102932531D01*
X143166741Y-102932531D02*
X143309598Y-102980150D01*
X143642932Y-102932531D02*
X143881027Y-103932531D01*
X143881027Y-103932531D02*
X144071503Y-103218245D01*
X144071503Y-103218245D02*
X144261979Y-103932531D01*
X144261979Y-103932531D02*
X144500075Y-102932531D01*
X142309598Y-104542475D02*
X142309598Y-105256760D01*
X142309598Y-105256760D02*
X142261979Y-105399617D01*
X142261979Y-105399617D02*
X142166741Y-105494856D01*
X142166741Y-105494856D02*
X142023884Y-105542475D01*
X142023884Y-105542475D02*
X141928646Y-105542475D01*
X143166741Y-105494856D02*
X143071503Y-105542475D01*
X143071503Y-105542475D02*
X142881027Y-105542475D01*
X142881027Y-105542475D02*
X142785789Y-105494856D01*
X142785789Y-105494856D02*
X142738170Y-105399617D01*
X142738170Y-105399617D02*
X142738170Y-105018665D01*
X142738170Y-105018665D02*
X142785789Y-104923427D01*
X142785789Y-104923427D02*
X142881027Y-104875808D01*
X142881027Y-104875808D02*
X143071503Y-104875808D01*
X143071503Y-104875808D02*
X143166741Y-104923427D01*
X143166741Y-104923427D02*
X143214360Y-105018665D01*
X143214360Y-105018665D02*
X143214360Y-105113903D01*
X143214360Y-105113903D02*
X142738170Y-105209141D01*
X143500075Y-104875808D02*
X143881027Y-104875808D01*
X143642932Y-104542475D02*
X143642932Y-105399617D01*
X143642932Y-105399617D02*
X143690551Y-105494856D01*
X143690551Y-105494856D02*
X143785789Y-105542475D01*
X143785789Y-105542475D02*
X143881027Y-105542475D01*
X144166742Y-105494856D02*
X144261980Y-105542475D01*
X144261980Y-105542475D02*
X144452456Y-105542475D01*
X144452456Y-105542475D02*
X144547694Y-105494856D01*
X144547694Y-105494856D02*
X144595313Y-105399617D01*
X144595313Y-105399617D02*
X144595313Y-105351998D01*
X144595313Y-105351998D02*
X144547694Y-105256760D01*
X144547694Y-105256760D02*
X144452456Y-105209141D01*
X144452456Y-105209141D02*
X144309599Y-105209141D01*
X144309599Y-105209141D02*
X144214361Y-105161522D01*
X144214361Y-105161522D02*
X144166742Y-105066284D01*
X144166742Y-105066284D02*
X144166742Y-105018665D01*
X144166742Y-105018665D02*
X144214361Y-104923427D01*
X144214361Y-104923427D02*
X144309599Y-104875808D01*
X144309599Y-104875808D02*
X144452456Y-104875808D01*
X144452456Y-104875808D02*
X144547694Y-104923427D01*
X145166742Y-105542475D02*
X145071504Y-105494856D01*
X145071504Y-105494856D02*
X145023885Y-105447236D01*
X145023885Y-105447236D02*
X144976266Y-105351998D01*
X144976266Y-105351998D02*
X144976266Y-105066284D01*
X144976266Y-105066284D02*
X145023885Y-104971046D01*
X145023885Y-104971046D02*
X145071504Y-104923427D01*
X145071504Y-104923427D02*
X145166742Y-104875808D01*
X145166742Y-104875808D02*
X145309599Y-104875808D01*
X145309599Y-104875808D02*
X145404837Y-104923427D01*
X145404837Y-104923427D02*
X145452456Y-104971046D01*
X145452456Y-104971046D02*
X145500075Y-105066284D01*
X145500075Y-105066284D02*
X145500075Y-105351998D01*
X145500075Y-105351998D02*
X145452456Y-105447236D01*
X145452456Y-105447236D02*
X145404837Y-105494856D01*
X145404837Y-105494856D02*
X145309599Y-105542475D01*
X145309599Y-105542475D02*
X145166742Y-105542475D01*
X145928647Y-104875808D02*
X145928647Y-105542475D01*
X145928647Y-104971046D02*
X145976266Y-104923427D01*
X145976266Y-104923427D02*
X146071504Y-104875808D01*
X146071504Y-104875808D02*
X146214361Y-104875808D01*
X146214361Y-104875808D02*
X146309599Y-104923427D01*
X146309599Y-104923427D02*
X146357218Y-105018665D01*
X146357218Y-105018665D02*
X146357218Y-105542475D01*
X147720075Y-43754856D02*
X147862932Y-43802475D01*
X147862932Y-43802475D02*
X148101027Y-43802475D01*
X148101027Y-43802475D02*
X148196265Y-43754856D01*
X148196265Y-43754856D02*
X148243884Y-43707236D01*
X148243884Y-43707236D02*
X148291503Y-43611998D01*
X148291503Y-43611998D02*
X148291503Y-43516760D01*
X148291503Y-43516760D02*
X148243884Y-43421522D01*
X148243884Y-43421522D02*
X148196265Y-43373903D01*
X148196265Y-43373903D02*
X148101027Y-43326284D01*
X148101027Y-43326284D02*
X147910551Y-43278665D01*
X147910551Y-43278665D02*
X147815313Y-43231046D01*
X147815313Y-43231046D02*
X147767694Y-43183427D01*
X147767694Y-43183427D02*
X147720075Y-43088189D01*
X147720075Y-43088189D02*
X147720075Y-42992951D01*
X147720075Y-42992951D02*
X147767694Y-42897713D01*
X147767694Y-42897713D02*
X147815313Y-42850094D01*
X147815313Y-42850094D02*
X147910551Y-42802475D01*
X147910551Y-42802475D02*
X148148646Y-42802475D01*
X148148646Y-42802475D02*
X148291503Y-42850094D01*
X148624837Y-42802475D02*
X148862932Y-43802475D01*
X148862932Y-43802475D02*
X149053408Y-43088189D01*
X149053408Y-43088189D02*
X149243884Y-43802475D01*
X149243884Y-43802475D02*
X149481980Y-42802475D01*
X146862932Y-44412419D02*
X147196265Y-45412419D01*
X147196265Y-45412419D02*
X147529598Y-44412419D01*
X148243884Y-45364800D02*
X148148646Y-45412419D01*
X148148646Y-45412419D02*
X147958170Y-45412419D01*
X147958170Y-45412419D02*
X147862932Y-45364800D01*
X147862932Y-45364800D02*
X147815313Y-45269561D01*
X147815313Y-45269561D02*
X147815313Y-44888609D01*
X147815313Y-44888609D02*
X147862932Y-44793371D01*
X147862932Y-44793371D02*
X147958170Y-44745752D01*
X147958170Y-44745752D02*
X148148646Y-44745752D01*
X148148646Y-44745752D02*
X148243884Y-44793371D01*
X148243884Y-44793371D02*
X148291503Y-44888609D01*
X148291503Y-44888609D02*
X148291503Y-44983847D01*
X148291503Y-44983847D02*
X147815313Y-45079085D01*
X148672456Y-45364800D02*
X148767694Y-45412419D01*
X148767694Y-45412419D02*
X148958170Y-45412419D01*
X148958170Y-45412419D02*
X149053408Y-45364800D01*
X149053408Y-45364800D02*
X149101027Y-45269561D01*
X149101027Y-45269561D02*
X149101027Y-45221942D01*
X149101027Y-45221942D02*
X149053408Y-45126704D01*
X149053408Y-45126704D02*
X148958170Y-45079085D01*
X148958170Y-45079085D02*
X148815313Y-45079085D01*
X148815313Y-45079085D02*
X148720075Y-45031466D01*
X148720075Y-45031466D02*
X148672456Y-44936228D01*
X148672456Y-44936228D02*
X148672456Y-44888609D01*
X148672456Y-44888609D02*
X148720075Y-44793371D01*
X148720075Y-44793371D02*
X148815313Y-44745752D01*
X148815313Y-44745752D02*
X148958170Y-44745752D01*
X148958170Y-44745752D02*
X149053408Y-44793371D01*
X149958170Y-45364800D02*
X149862932Y-45412419D01*
X149862932Y-45412419D02*
X149672456Y-45412419D01*
X149672456Y-45412419D02*
X149577218Y-45364800D01*
X149577218Y-45364800D02*
X149529599Y-45317180D01*
X149529599Y-45317180D02*
X149481980Y-45221942D01*
X149481980Y-45221942D02*
X149481980Y-44936228D01*
X149481980Y-44936228D02*
X149529599Y-44840990D01*
X149529599Y-44840990D02*
X149577218Y-44793371D01*
X149577218Y-44793371D02*
X149672456Y-44745752D01*
X149672456Y-44745752D02*
X149862932Y-44745752D01*
X149862932Y-44745752D02*
X149958170Y-44793371D01*
X80922419Y-52298972D02*
X81922419Y-51965639D01*
X81922419Y-51965639D02*
X80922419Y-51632306D01*
X81874800Y-50918020D02*
X81922419Y-51013258D01*
X81922419Y-51013258D02*
X81922419Y-51203734D01*
X81922419Y-51203734D02*
X81874800Y-51298972D01*
X81874800Y-51298972D02*
X81779561Y-51346591D01*
X81779561Y-51346591D02*
X81398609Y-51346591D01*
X81398609Y-51346591D02*
X81303371Y-51298972D01*
X81303371Y-51298972D02*
X81255752Y-51203734D01*
X81255752Y-51203734D02*
X81255752Y-51013258D01*
X81255752Y-51013258D02*
X81303371Y-50918020D01*
X81303371Y-50918020D02*
X81398609Y-50870401D01*
X81398609Y-50870401D02*
X81493847Y-50870401D01*
X81493847Y-50870401D02*
X81589085Y-51346591D01*
X81874800Y-50489448D02*
X81922419Y-50394210D01*
X81922419Y-50394210D02*
X81922419Y-50203734D01*
X81922419Y-50203734D02*
X81874800Y-50108496D01*
X81874800Y-50108496D02*
X81779561Y-50060877D01*
X81779561Y-50060877D02*
X81731942Y-50060877D01*
X81731942Y-50060877D02*
X81636704Y-50108496D01*
X81636704Y-50108496D02*
X81589085Y-50203734D01*
X81589085Y-50203734D02*
X81589085Y-50346591D01*
X81589085Y-50346591D02*
X81541466Y-50441829D01*
X81541466Y-50441829D02*
X81446228Y-50489448D01*
X81446228Y-50489448D02*
X81398609Y-50489448D01*
X81398609Y-50489448D02*
X81303371Y-50441829D01*
X81303371Y-50441829D02*
X81255752Y-50346591D01*
X81255752Y-50346591D02*
X81255752Y-50203734D01*
X81255752Y-50203734D02*
X81303371Y-50108496D01*
X81874800Y-49203734D02*
X81922419Y-49298972D01*
X81922419Y-49298972D02*
X81922419Y-49489448D01*
X81922419Y-49489448D02*
X81874800Y-49584686D01*
X81874800Y-49584686D02*
X81827180Y-49632305D01*
X81827180Y-49632305D02*
X81731942Y-49679924D01*
X81731942Y-49679924D02*
X81446228Y-49679924D01*
X81446228Y-49679924D02*
X81350990Y-49632305D01*
X81350990Y-49632305D02*
X81303371Y-49584686D01*
X81303371Y-49584686D02*
X81255752Y-49489448D01*
X81255752Y-49489448D02*
X81255752Y-49298972D01*
X81255752Y-49298972D02*
X81303371Y-49203734D01*
X108623609Y-111830476D02*
X108671228Y-111687619D01*
X108671228Y-111687619D02*
X108718847Y-111640000D01*
X108718847Y-111640000D02*
X108814085Y-111592381D01*
X108814085Y-111592381D02*
X108956942Y-111592381D01*
X108956942Y-111592381D02*
X109052180Y-111640000D01*
X109052180Y-111640000D02*
X109099800Y-111687619D01*
X109099800Y-111687619D02*
X109147419Y-111782857D01*
X109147419Y-111782857D02*
X109147419Y-112163809D01*
X109147419Y-112163809D02*
X108147419Y-112163809D01*
X108147419Y-112163809D02*
X108147419Y-111830476D01*
X108147419Y-111830476D02*
X108195038Y-111735238D01*
X108195038Y-111735238D02*
X108242657Y-111687619D01*
X108242657Y-111687619D02*
X108337895Y-111640000D01*
X108337895Y-111640000D02*
X108433133Y-111640000D01*
X108433133Y-111640000D02*
X108528371Y-111687619D01*
X108528371Y-111687619D02*
X108575990Y-111735238D01*
X108575990Y-111735238D02*
X108623609Y-111830476D01*
X108623609Y-111830476D02*
X108623609Y-112163809D01*
X108480752Y-110735238D02*
X109147419Y-110735238D01*
X108480752Y-111163809D02*
X109004561Y-111163809D01*
X109004561Y-111163809D02*
X109099800Y-111116190D01*
X109099800Y-111116190D02*
X109147419Y-111020952D01*
X109147419Y-111020952D02*
X109147419Y-110878095D01*
X109147419Y-110878095D02*
X109099800Y-110782857D01*
X109099800Y-110782857D02*
X109052180Y-110735238D01*
X109099800Y-109830476D02*
X109147419Y-109925714D01*
X109147419Y-109925714D02*
X109147419Y-110116190D01*
X109147419Y-110116190D02*
X109099800Y-110211428D01*
X109099800Y-110211428D02*
X109052180Y-110259047D01*
X109052180Y-110259047D02*
X108956942Y-110306666D01*
X108956942Y-110306666D02*
X108671228Y-110306666D01*
X108671228Y-110306666D02*
X108575990Y-110259047D01*
X108575990Y-110259047D02*
X108528371Y-110211428D01*
X108528371Y-110211428D02*
X108480752Y-110116190D01*
X108480752Y-110116190D02*
X108480752Y-109925714D01*
X108480752Y-109925714D02*
X108528371Y-109830476D01*
X109147419Y-109401904D02*
X108147419Y-109401904D01*
X108766466Y-109306666D02*
X109147419Y-109020952D01*
X108480752Y-109020952D02*
X108861704Y-109401904D01*
X109147419Y-108068571D02*
X109147419Y-108639999D01*
X109147419Y-108354285D02*
X108147419Y-108354285D01*
X108147419Y-108354285D02*
X108290276Y-108449523D01*
X108290276Y-108449523D02*
X108385514Y-108544761D01*
X108385514Y-108544761D02*
X108433133Y-108639999D01*
X107793609Y-84430476D02*
X107841228Y-84287619D01*
X107841228Y-84287619D02*
X107888847Y-84240000D01*
X107888847Y-84240000D02*
X107984085Y-84192381D01*
X107984085Y-84192381D02*
X108126942Y-84192381D01*
X108126942Y-84192381D02*
X108222180Y-84240000D01*
X108222180Y-84240000D02*
X108269800Y-84287619D01*
X108269800Y-84287619D02*
X108317419Y-84382857D01*
X108317419Y-84382857D02*
X108317419Y-84763809D01*
X108317419Y-84763809D02*
X107317419Y-84763809D01*
X107317419Y-84763809D02*
X107317419Y-84430476D01*
X107317419Y-84430476D02*
X107365038Y-84335238D01*
X107365038Y-84335238D02*
X107412657Y-84287619D01*
X107412657Y-84287619D02*
X107507895Y-84240000D01*
X107507895Y-84240000D02*
X107603133Y-84240000D01*
X107603133Y-84240000D02*
X107698371Y-84287619D01*
X107698371Y-84287619D02*
X107745990Y-84335238D01*
X107745990Y-84335238D02*
X107793609Y-84430476D01*
X107793609Y-84430476D02*
X107793609Y-84763809D01*
X107650752Y-83335238D02*
X108317419Y-83335238D01*
X107650752Y-83763809D02*
X108174561Y-83763809D01*
X108174561Y-83763809D02*
X108269800Y-83716190D01*
X108269800Y-83716190D02*
X108317419Y-83620952D01*
X108317419Y-83620952D02*
X108317419Y-83478095D01*
X108317419Y-83478095D02*
X108269800Y-83382857D01*
X108269800Y-83382857D02*
X108222180Y-83335238D01*
X108269800Y-82430476D02*
X108317419Y-82525714D01*
X108317419Y-82525714D02*
X108317419Y-82716190D01*
X108317419Y-82716190D02*
X108269800Y-82811428D01*
X108269800Y-82811428D02*
X108222180Y-82859047D01*
X108222180Y-82859047D02*
X108126942Y-82906666D01*
X108126942Y-82906666D02*
X107841228Y-82906666D01*
X107841228Y-82906666D02*
X107745990Y-82859047D01*
X107745990Y-82859047D02*
X107698371Y-82811428D01*
X107698371Y-82811428D02*
X107650752Y-82716190D01*
X107650752Y-82716190D02*
X107650752Y-82525714D01*
X107650752Y-82525714D02*
X107698371Y-82430476D01*
X108317419Y-82001904D02*
X107317419Y-82001904D01*
X107936466Y-81906666D02*
X108317419Y-81620952D01*
X107650752Y-81620952D02*
X108031704Y-82001904D01*
X107412657Y-81239999D02*
X107365038Y-81192380D01*
X107365038Y-81192380D02*
X107317419Y-81097142D01*
X107317419Y-81097142D02*
X107317419Y-80859047D01*
X107317419Y-80859047D02*
X107365038Y-80763809D01*
X107365038Y-80763809D02*
X107412657Y-80716190D01*
X107412657Y-80716190D02*
X107507895Y-80668571D01*
X107507895Y-80668571D02*
X107603133Y-80668571D01*
X107603133Y-80668571D02*
X107745990Y-80716190D01*
X107745990Y-80716190D02*
X108317419Y-81287618D01*
X108317419Y-81287618D02*
X108317419Y-80668571D01*
%TO.C,vesc1*%
D11*
X116670000Y-44030000D02*
X116670000Y-56880000D01*
X116670000Y-56880000D02*
X124970000Y-56880000D01*
X119270000Y-41180000D02*
X116670000Y-44030000D01*
X122420000Y-41180000D02*
X119270000Y-41180000D01*
X124970000Y-44030000D02*
X122420000Y-41180000D01*
X124970000Y-56880000D02*
X124970000Y-44030000D01*
%TO.C,SW*%
X143190000Y-48840000D02*
X150510000Y-48840000D01*
X143190000Y-56880000D02*
X143190000Y-48840000D01*
X151110000Y-48840000D02*
X153930000Y-48840000D01*
X153930000Y-48840000D02*
X153930000Y-56880000D01*
X153930000Y-56880000D02*
X143190000Y-56880000D01*
%TO.C,J1*%
X139350000Y-68760000D02*
X139350000Y-71910000D01*
X139350000Y-71910000D02*
X142200000Y-74510000D01*
X142200000Y-66210000D02*
X139350000Y-68760000D01*
X142200000Y-74510000D02*
X155050000Y-74510000D01*
X155050000Y-66210000D02*
X142200000Y-66210000D01*
X155050000Y-74510000D02*
X155050000Y-66210000D01*
%TO.C,Buck2*%
D10*
X88780000Y-72000000D02*
X133980000Y-72000000D01*
X88780000Y-94000000D02*
X88780000Y-72000000D01*
X133980000Y-72000000D02*
X133980000Y-94000000D01*
X133980000Y-94000000D02*
X88780000Y-94000000D01*
%TD*%
M02*
