%TF.GenerationSoftware,KiCad,Pcbnew,10.0.5*%
%TF.CreationDate,2026-09-02T19:26:38+05:30*%
%TF.ProjectId,Rlaarlo_PDB,526c6161-726c-46f5-9f50-44422e6b6963,rev?*%
%TF.SameCoordinates,Original*%
%TF.FileFunction,Drillmap*%
%TF.FilePolarity,Positive*%
%FSLAX45Y45*%
G04 Gerber Fmt 4.5, Leading zero omitted, Abs format (unit mm)*
G04 Created by KiCad (PCBNEW 10.0.5) date 2026-09-02 19:26:38*
%MOMM*%
%LPD*%
G01*
G04 APERTURE LIST*
%ADD10C,0.050000*%
%ADD11C,0.200000*%
%ADD12C,0.100000*%
%ADD13C,0.130000*%
%ADD14C,0.150000*%
%ADD15C,0.450000*%
%ADD16C,0.320000*%
%ADD17C,0.440000*%
G04 APERTURE END LIST*
D10*
X7000000Y-2500000D02*
X15800000Y-2500000D01*
X15800000Y-12500000D01*
X7000000Y-12500000D01*
X7000000Y-2500000D01*
D11*
D12*
X7313000Y-7880000D02*
X7413000Y-7980000D01*
X7413000Y-7880000D02*
X7313000Y-7980000D01*
X7313000Y-8134000D02*
X7413000Y-8234000D01*
X7413000Y-8134000D02*
X7313000Y-8234000D01*
X7313000Y-8388000D02*
X7413000Y-8488000D01*
X7413000Y-8388000D02*
X7313000Y-8488000D01*
X8070000Y-10247000D02*
X8170000Y-10347000D01*
X8170000Y-10247000D02*
X8070000Y-10347000D01*
X8070000Y-11647000D02*
X8170000Y-11747000D01*
X8170000Y-11647000D02*
X8070000Y-11747000D01*
X9148000Y-7400000D02*
X9248000Y-7500000D01*
X9248000Y-7400000D02*
X9148000Y-7500000D01*
X9148000Y-9100000D02*
X9248000Y-9200000D01*
X9248000Y-9100000D02*
X9148000Y-9200000D01*
X9687000Y-6641000D02*
X9787000Y-6741000D01*
X9787000Y-6641000D02*
X9687000Y-6741000D01*
X9941000Y-6641000D02*
X10041000Y-6741000D01*
X10041000Y-6641000D02*
X9941000Y-6741000D01*
X10195000Y-6641000D02*
X10295000Y-6741000D01*
X10295000Y-6641000D02*
X10195000Y-6741000D01*
X13148000Y-7400000D02*
X13248000Y-7500000D01*
X13248000Y-7400000D02*
X13148000Y-7500000D01*
X13148000Y-9100000D02*
X13248000Y-9200000D01*
X13248000Y-9100000D02*
X13148000Y-9200000D01*
X13770000Y-10247000D02*
X13870000Y-10347000D01*
X13870000Y-10247000D02*
X13770000Y-10347000D01*
X13770000Y-11647000D02*
X13870000Y-11747000D01*
X13870000Y-11647000D02*
X13770000Y-11747000D01*
D13*
X7442000Y-10796000D02*
G75*
G02*
X7312000Y-10796000I-65000J0D01*
G01*
X7312000Y-10796000D02*
G75*
G02*
X7442000Y-10796000I65000J0D01*
G01*
X7442000Y-11296000D02*
G75*
G02*
X7312000Y-11296000I-65000J0D01*
G01*
X7312000Y-11296000D02*
G75*
G02*
X7442000Y-11296000I65000J0D01*
G01*
D14*
X14581000Y-5201000D02*
X14581000Y-5351000D01*
X14506000Y-5276000D02*
X14656000Y-5276000D01*
X15003000Y-10616250D02*
X15003000Y-10766250D01*
X14928000Y-10691250D02*
X15078000Y-10691250D01*
X15024000Y-8713250D02*
X15024000Y-8863250D01*
X14949000Y-8788250D02*
X15099000Y-8788250D01*
X15081000Y-5201000D02*
X15081000Y-5351000D01*
X15006000Y-5276000D02*
X15156000Y-5276000D01*
X15503000Y-10616250D02*
X15503000Y-10766250D01*
X15428000Y-10691250D02*
X15578000Y-10691250D01*
X15524000Y-8713250D02*
X15524000Y-8863250D01*
X15449000Y-8788250D02*
X15599000Y-8788250D01*
D15*
X12241101Y-4702101D02*
X12241101Y-4383899D01*
X11922899Y-4383899D01*
X11922899Y-4702101D01*
X12241101Y-4702101D01*
X12241101Y-5422101D02*
X12241101Y-5103899D01*
X11922899Y-5103899D01*
X11922899Y-5422101D01*
X12241101Y-5422101D01*
X14519101Y-7195101D02*
X14519101Y-6876899D01*
X14200899Y-6876899D01*
X14200899Y-7195101D01*
X14519101Y-7195101D01*
X15239101Y-7195101D02*
X15239101Y-6876899D01*
X14920899Y-6876899D01*
X14920899Y-7195101D01*
X15239101Y-7195101D01*
D16*
X7353553Y-12305447D02*
X7513553Y-12145447D01*
X7353553Y-11985447D01*
X7193553Y-12145447D01*
X7353553Y-12305447D01*
X7373975Y-3023132D02*
X7533975Y-2863132D01*
X7373975Y-2703132D01*
X7213975Y-2863132D01*
X7373975Y-3023132D01*
X15446447Y-12304447D02*
X15606447Y-12144447D01*
X15446447Y-11984447D01*
X15286447Y-12144447D01*
X15446447Y-12304447D01*
X15488447Y-3022553D02*
X15648447Y-2862553D01*
X15488447Y-2702553D01*
X15328447Y-2862553D01*
X15488447Y-3022553D01*
D17*
X7567000Y-3118000D02*
X8007000Y-3558000D01*
X8007000Y-3118000D02*
X7567000Y-3558000D01*
X8007000Y-3338000D02*
G75*
G02*
X7567000Y-3338000I-220000J0D01*
G01*
X7567000Y-3338000D02*
G75*
G02*
X8007000Y-3338000I220000J0D01*
G01*
X7567000Y-6468000D02*
X8007000Y-6908000D01*
X8007000Y-6468000D02*
X7567000Y-6908000D01*
X8007000Y-6688000D02*
G75*
G02*
X7567000Y-6688000I-220000J0D01*
G01*
X7567000Y-6688000D02*
G75*
G02*
X8007000Y-6688000I220000J0D01*
G01*
X9285800Y-4793000D02*
X9725800Y-5233000D01*
X9725800Y-4793000D02*
X9285800Y-5233000D01*
X9725800Y-5013000D02*
G75*
G02*
X9285800Y-5013000I-220000J0D01*
G01*
X9285800Y-5013000D02*
G75*
G02*
X9725800Y-5013000I220000J0D01*
G01*
D11*
X7258277Y-12813984D02*
X7258277Y-12613984D01*
X7258277Y-12613984D02*
X7305896Y-12613984D01*
X7305896Y-12613984D02*
X7334467Y-12623508D01*
X7334467Y-12623508D02*
X7353515Y-12642555D01*
X7353515Y-12642555D02*
X7363039Y-12661603D01*
X7363039Y-12661603D02*
X7372562Y-12699698D01*
X7372562Y-12699698D02*
X7372562Y-12728269D01*
X7372562Y-12728269D02*
X7363039Y-12766365D01*
X7363039Y-12766365D02*
X7353515Y-12785412D01*
X7353515Y-12785412D02*
X7334467Y-12804460D01*
X7334467Y-12804460D02*
X7305896Y-12813984D01*
X7305896Y-12813984D02*
X7258277Y-12813984D01*
X7458277Y-12813984D02*
X7458277Y-12680650D01*
X7458277Y-12718746D02*
X7467801Y-12699698D01*
X7467801Y-12699698D02*
X7477324Y-12690174D01*
X7477324Y-12690174D02*
X7496372Y-12680650D01*
X7496372Y-12680650D02*
X7515420Y-12680650D01*
X7582086Y-12813984D02*
X7582086Y-12680650D01*
X7582086Y-12613984D02*
X7572562Y-12623508D01*
X7572562Y-12623508D02*
X7582086Y-12633031D01*
X7582086Y-12633031D02*
X7591610Y-12623508D01*
X7591610Y-12623508D02*
X7582086Y-12613984D01*
X7582086Y-12613984D02*
X7582086Y-12633031D01*
X7705896Y-12813984D02*
X7686848Y-12804460D01*
X7686848Y-12804460D02*
X7677324Y-12785412D01*
X7677324Y-12785412D02*
X7677324Y-12613984D01*
X7810658Y-12813984D02*
X7791610Y-12804460D01*
X7791610Y-12804460D02*
X7782086Y-12785412D01*
X7782086Y-12785412D02*
X7782086Y-12613984D01*
X8039229Y-12813984D02*
X8039229Y-12613984D01*
X8039229Y-12613984D02*
X8105896Y-12756841D01*
X8105896Y-12756841D02*
X8172562Y-12613984D01*
X8172562Y-12613984D02*
X8172562Y-12813984D01*
X8353515Y-12813984D02*
X8353515Y-12709222D01*
X8353515Y-12709222D02*
X8343991Y-12690174D01*
X8343991Y-12690174D02*
X8324943Y-12680650D01*
X8324943Y-12680650D02*
X8286848Y-12680650D01*
X8286848Y-12680650D02*
X8267801Y-12690174D01*
X8353515Y-12804460D02*
X8334467Y-12813984D01*
X8334467Y-12813984D02*
X8286848Y-12813984D01*
X8286848Y-12813984D02*
X8267801Y-12804460D01*
X8267801Y-12804460D02*
X8258277Y-12785412D01*
X8258277Y-12785412D02*
X8258277Y-12766365D01*
X8258277Y-12766365D02*
X8267801Y-12747317D01*
X8267801Y-12747317D02*
X8286848Y-12737793D01*
X8286848Y-12737793D02*
X8334467Y-12737793D01*
X8334467Y-12737793D02*
X8353515Y-12728269D01*
X8448753Y-12680650D02*
X8448753Y-12880650D01*
X8448753Y-12690174D02*
X8467801Y-12680650D01*
X8467801Y-12680650D02*
X8505896Y-12680650D01*
X8505896Y-12680650D02*
X8524944Y-12690174D01*
X8524944Y-12690174D02*
X8534467Y-12699698D01*
X8534467Y-12699698D02*
X8543991Y-12718746D01*
X8543991Y-12718746D02*
X8543991Y-12775888D01*
X8543991Y-12775888D02*
X8534467Y-12794936D01*
X8534467Y-12794936D02*
X8524944Y-12804460D01*
X8524944Y-12804460D02*
X8505896Y-12813984D01*
X8505896Y-12813984D02*
X8467801Y-12813984D01*
X8467801Y-12813984D02*
X8448753Y-12804460D01*
X8629705Y-12794936D02*
X8639229Y-12804460D01*
X8639229Y-12804460D02*
X8629705Y-12813984D01*
X8629705Y-12813984D02*
X8620182Y-12804460D01*
X8620182Y-12804460D02*
X8629705Y-12794936D01*
X8629705Y-12794936D02*
X8629705Y-12813984D01*
X8629705Y-12690174D02*
X8639229Y-12699698D01*
X8639229Y-12699698D02*
X8629705Y-12709222D01*
X8629705Y-12709222D02*
X8620182Y-12699698D01*
X8620182Y-12699698D02*
X8629705Y-12690174D01*
X8629705Y-12690174D02*
X8629705Y-12709222D01*
D12*
X6897500Y-13092500D02*
X6997500Y-13192500D01*
X6997500Y-13092500D02*
X6897500Y-13192500D01*
D11*
X7363039Y-13233984D02*
X7248753Y-13233984D01*
X7305896Y-13233984D02*
X7305896Y-13033984D01*
X7305896Y-13033984D02*
X7286848Y-13062555D01*
X7286848Y-13062555D02*
X7267801Y-13081603D01*
X7267801Y-13081603D02*
X7248753Y-13091127D01*
X7448753Y-13214936D02*
X7458277Y-13224460D01*
X7458277Y-13224460D02*
X7448753Y-13233984D01*
X7448753Y-13233984D02*
X7439229Y-13224460D01*
X7439229Y-13224460D02*
X7448753Y-13214936D01*
X7448753Y-13214936D02*
X7448753Y-13233984D01*
X7582086Y-13033984D02*
X7601134Y-13033984D01*
X7601134Y-13033984D02*
X7620182Y-13043508D01*
X7620182Y-13043508D02*
X7629705Y-13053031D01*
X7629705Y-13053031D02*
X7639229Y-13072079D01*
X7639229Y-13072079D02*
X7648753Y-13110174D01*
X7648753Y-13110174D02*
X7648753Y-13157793D01*
X7648753Y-13157793D02*
X7639229Y-13195888D01*
X7639229Y-13195888D02*
X7629705Y-13214936D01*
X7629705Y-13214936D02*
X7620182Y-13224460D01*
X7620182Y-13224460D02*
X7601134Y-13233984D01*
X7601134Y-13233984D02*
X7582086Y-13233984D01*
X7582086Y-13233984D02*
X7563039Y-13224460D01*
X7563039Y-13224460D02*
X7553515Y-13214936D01*
X7553515Y-13214936D02*
X7543991Y-13195888D01*
X7543991Y-13195888D02*
X7534467Y-13157793D01*
X7534467Y-13157793D02*
X7534467Y-13110174D01*
X7534467Y-13110174D02*
X7543991Y-13072079D01*
X7543991Y-13072079D02*
X7553515Y-13053031D01*
X7553515Y-13053031D02*
X7563039Y-13043508D01*
X7563039Y-13043508D02*
X7582086Y-13033984D01*
X7772562Y-13033984D02*
X7791610Y-13033984D01*
X7791610Y-13033984D02*
X7810658Y-13043508D01*
X7810658Y-13043508D02*
X7820182Y-13053031D01*
X7820182Y-13053031D02*
X7829705Y-13072079D01*
X7829705Y-13072079D02*
X7839229Y-13110174D01*
X7839229Y-13110174D02*
X7839229Y-13157793D01*
X7839229Y-13157793D02*
X7829705Y-13195888D01*
X7829705Y-13195888D02*
X7820182Y-13214936D01*
X7820182Y-13214936D02*
X7810658Y-13224460D01*
X7810658Y-13224460D02*
X7791610Y-13233984D01*
X7791610Y-13233984D02*
X7772562Y-13233984D01*
X7772562Y-13233984D02*
X7753515Y-13224460D01*
X7753515Y-13224460D02*
X7743991Y-13214936D01*
X7743991Y-13214936D02*
X7734467Y-13195888D01*
X7734467Y-13195888D02*
X7724943Y-13157793D01*
X7724943Y-13157793D02*
X7724943Y-13110174D01*
X7724943Y-13110174D02*
X7734467Y-13072079D01*
X7734467Y-13072079D02*
X7743991Y-13053031D01*
X7743991Y-13053031D02*
X7753515Y-13043508D01*
X7753515Y-13043508D02*
X7772562Y-13033984D01*
X7963039Y-13033984D02*
X7982086Y-13033984D01*
X7982086Y-13033984D02*
X8001134Y-13043508D01*
X8001134Y-13043508D02*
X8010658Y-13053031D01*
X8010658Y-13053031D02*
X8020182Y-13072079D01*
X8020182Y-13072079D02*
X8029705Y-13110174D01*
X8029705Y-13110174D02*
X8029705Y-13157793D01*
X8029705Y-13157793D02*
X8020182Y-13195888D01*
X8020182Y-13195888D02*
X8010658Y-13214936D01*
X8010658Y-13214936D02*
X8001134Y-13224460D01*
X8001134Y-13224460D02*
X7982086Y-13233984D01*
X7982086Y-13233984D02*
X7963039Y-13233984D01*
X7963039Y-13233984D02*
X7943991Y-13224460D01*
X7943991Y-13224460D02*
X7934467Y-13214936D01*
X7934467Y-13214936D02*
X7924943Y-13195888D01*
X7924943Y-13195888D02*
X7915420Y-13157793D01*
X7915420Y-13157793D02*
X7915420Y-13110174D01*
X7915420Y-13110174D02*
X7924943Y-13072079D01*
X7924943Y-13072079D02*
X7934467Y-13053031D01*
X7934467Y-13053031D02*
X7943991Y-13043508D01*
X7943991Y-13043508D02*
X7963039Y-13033984D01*
X8115420Y-13233984D02*
X8115420Y-13100650D01*
X8115420Y-13119698D02*
X8124943Y-13110174D01*
X8124943Y-13110174D02*
X8143991Y-13100650D01*
X8143991Y-13100650D02*
X8172563Y-13100650D01*
X8172563Y-13100650D02*
X8191610Y-13110174D01*
X8191610Y-13110174D02*
X8201134Y-13129222D01*
X8201134Y-13129222D02*
X8201134Y-13233984D01*
X8201134Y-13129222D02*
X8210658Y-13110174D01*
X8210658Y-13110174D02*
X8229705Y-13100650D01*
X8229705Y-13100650D02*
X8258277Y-13100650D01*
X8258277Y-13100650D02*
X8277324Y-13110174D01*
X8277324Y-13110174D02*
X8286848Y-13129222D01*
X8286848Y-13129222D02*
X8286848Y-13233984D01*
X8382086Y-13233984D02*
X8382086Y-13100650D01*
X8382086Y-13119698D02*
X8391610Y-13110174D01*
X8391610Y-13110174D02*
X8410658Y-13100650D01*
X8410658Y-13100650D02*
X8439229Y-13100650D01*
X8439229Y-13100650D02*
X8458277Y-13110174D01*
X8458277Y-13110174D02*
X8467801Y-13129222D01*
X8467801Y-13129222D02*
X8467801Y-13233984D01*
X8467801Y-13129222D02*
X8477325Y-13110174D01*
X8477325Y-13110174D02*
X8496372Y-13100650D01*
X8496372Y-13100650D02*
X8524944Y-13100650D01*
X8524944Y-13100650D02*
X8543991Y-13110174D01*
X8543991Y-13110174D02*
X8553515Y-13129222D01*
X8553515Y-13129222D02*
X8553515Y-13233984D01*
X8943991Y-13024460D02*
X8772563Y-13281603D01*
X9201134Y-13033984D02*
X9220182Y-13033984D01*
X9220182Y-13033984D02*
X9239229Y-13043508D01*
X9239229Y-13043508D02*
X9248753Y-13053031D01*
X9248753Y-13053031D02*
X9258277Y-13072079D01*
X9258277Y-13072079D02*
X9267801Y-13110174D01*
X9267801Y-13110174D02*
X9267801Y-13157793D01*
X9267801Y-13157793D02*
X9258277Y-13195888D01*
X9258277Y-13195888D02*
X9248753Y-13214936D01*
X9248753Y-13214936D02*
X9239229Y-13224460D01*
X9239229Y-13224460D02*
X9220182Y-13233984D01*
X9220182Y-13233984D02*
X9201134Y-13233984D01*
X9201134Y-13233984D02*
X9182087Y-13224460D01*
X9182087Y-13224460D02*
X9172563Y-13214936D01*
X9172563Y-13214936D02*
X9163039Y-13195888D01*
X9163039Y-13195888D02*
X9153515Y-13157793D01*
X9153515Y-13157793D02*
X9153515Y-13110174D01*
X9153515Y-13110174D02*
X9163039Y-13072079D01*
X9163039Y-13072079D02*
X9172563Y-13053031D01*
X9172563Y-13053031D02*
X9182087Y-13043508D01*
X9182087Y-13043508D02*
X9201134Y-13033984D01*
X9353515Y-13214936D02*
X9363039Y-13224460D01*
X9363039Y-13224460D02*
X9353515Y-13233984D01*
X9353515Y-13233984D02*
X9343991Y-13224460D01*
X9343991Y-13224460D02*
X9353515Y-13214936D01*
X9353515Y-13214936D02*
X9353515Y-13233984D01*
X9486848Y-13033984D02*
X9505896Y-13033984D01*
X9505896Y-13033984D02*
X9524944Y-13043508D01*
X9524944Y-13043508D02*
X9534468Y-13053031D01*
X9534468Y-13053031D02*
X9543991Y-13072079D01*
X9543991Y-13072079D02*
X9553515Y-13110174D01*
X9553515Y-13110174D02*
X9553515Y-13157793D01*
X9553515Y-13157793D02*
X9543991Y-13195888D01*
X9543991Y-13195888D02*
X9534468Y-13214936D01*
X9534468Y-13214936D02*
X9524944Y-13224460D01*
X9524944Y-13224460D02*
X9505896Y-13233984D01*
X9505896Y-13233984D02*
X9486848Y-13233984D01*
X9486848Y-13233984D02*
X9467801Y-13224460D01*
X9467801Y-13224460D02*
X9458277Y-13214936D01*
X9458277Y-13214936D02*
X9448753Y-13195888D01*
X9448753Y-13195888D02*
X9439229Y-13157793D01*
X9439229Y-13157793D02*
X9439229Y-13110174D01*
X9439229Y-13110174D02*
X9448753Y-13072079D01*
X9448753Y-13072079D02*
X9458277Y-13053031D01*
X9458277Y-13053031D02*
X9467801Y-13043508D01*
X9467801Y-13043508D02*
X9486848Y-13033984D01*
X9620182Y-13033984D02*
X9743991Y-13033984D01*
X9743991Y-13033984D02*
X9677325Y-13110174D01*
X9677325Y-13110174D02*
X9705896Y-13110174D01*
X9705896Y-13110174D02*
X9724944Y-13119698D01*
X9724944Y-13119698D02*
X9734468Y-13129222D01*
X9734468Y-13129222D02*
X9743991Y-13148269D01*
X9743991Y-13148269D02*
X9743991Y-13195888D01*
X9743991Y-13195888D02*
X9734468Y-13214936D01*
X9734468Y-13214936D02*
X9724944Y-13224460D01*
X9724944Y-13224460D02*
X9705896Y-13233984D01*
X9705896Y-13233984D02*
X9648753Y-13233984D01*
X9648753Y-13233984D02*
X9629706Y-13224460D01*
X9629706Y-13224460D02*
X9620182Y-13214936D01*
X9839229Y-13233984D02*
X9877325Y-13233984D01*
X9877325Y-13233984D02*
X9896372Y-13224460D01*
X9896372Y-13224460D02*
X9905896Y-13214936D01*
X9905896Y-13214936D02*
X9924944Y-13186365D01*
X9924944Y-13186365D02*
X9934468Y-13148269D01*
X9934468Y-13148269D02*
X9934468Y-13072079D01*
X9934468Y-13072079D02*
X9924944Y-13053031D01*
X9924944Y-13053031D02*
X9915420Y-13043508D01*
X9915420Y-13043508D02*
X9896372Y-13033984D01*
X9896372Y-13033984D02*
X9858277Y-13033984D01*
X9858277Y-13033984D02*
X9839229Y-13043508D01*
X9839229Y-13043508D02*
X9829706Y-13053031D01*
X9829706Y-13053031D02*
X9820182Y-13072079D01*
X9820182Y-13072079D02*
X9820182Y-13119698D01*
X9820182Y-13119698D02*
X9829706Y-13138746D01*
X9829706Y-13138746D02*
X9839229Y-13148269D01*
X9839229Y-13148269D02*
X9858277Y-13157793D01*
X9858277Y-13157793D02*
X9896372Y-13157793D01*
X9896372Y-13157793D02*
X9915420Y-13148269D01*
X9915420Y-13148269D02*
X9924944Y-13138746D01*
X9924944Y-13138746D02*
X9934468Y-13119698D01*
X10105896Y-13100650D02*
X10105896Y-13233984D01*
X10058277Y-13024460D02*
X10010658Y-13167317D01*
X10010658Y-13167317D02*
X10134468Y-13167317D01*
X10201134Y-13033984D02*
X10201134Y-13072079D01*
X10277325Y-13033984D02*
X10277325Y-13072079D01*
X10572563Y-13310174D02*
X10563039Y-13300650D01*
X10563039Y-13300650D02*
X10543991Y-13272079D01*
X10543991Y-13272079D02*
X10534468Y-13253031D01*
X10534468Y-13253031D02*
X10524944Y-13224460D01*
X10524944Y-13224460D02*
X10515420Y-13176841D01*
X10515420Y-13176841D02*
X10515420Y-13138746D01*
X10515420Y-13138746D02*
X10524944Y-13091127D01*
X10524944Y-13091127D02*
X10534468Y-13062555D01*
X10534468Y-13062555D02*
X10543991Y-13043508D01*
X10543991Y-13043508D02*
X10563039Y-13014936D01*
X10563039Y-13014936D02*
X10572563Y-13005412D01*
X10753515Y-13233984D02*
X10639230Y-13233984D01*
X10696372Y-13233984D02*
X10696372Y-13033984D01*
X10696372Y-13033984D02*
X10677325Y-13062555D01*
X10677325Y-13062555D02*
X10658277Y-13081603D01*
X10658277Y-13081603D02*
X10639230Y-13091127D01*
X10924944Y-13100650D02*
X10924944Y-13233984D01*
X10877325Y-13024460D02*
X10829706Y-13167317D01*
X10829706Y-13167317D02*
X10953515Y-13167317D01*
X11182087Y-13233984D02*
X11182087Y-13033984D01*
X11267801Y-13233984D02*
X11267801Y-13129222D01*
X11267801Y-13129222D02*
X11258277Y-13110174D01*
X11258277Y-13110174D02*
X11239230Y-13100650D01*
X11239230Y-13100650D02*
X11210658Y-13100650D01*
X11210658Y-13100650D02*
X11191610Y-13110174D01*
X11191610Y-13110174D02*
X11182087Y-13119698D01*
X11391610Y-13233984D02*
X11372563Y-13224460D01*
X11372563Y-13224460D02*
X11363039Y-13214936D01*
X11363039Y-13214936D02*
X11353515Y-13195888D01*
X11353515Y-13195888D02*
X11353515Y-13138746D01*
X11353515Y-13138746D02*
X11363039Y-13119698D01*
X11363039Y-13119698D02*
X11372563Y-13110174D01*
X11372563Y-13110174D02*
X11391610Y-13100650D01*
X11391610Y-13100650D02*
X11420182Y-13100650D01*
X11420182Y-13100650D02*
X11439230Y-13110174D01*
X11439230Y-13110174D02*
X11448753Y-13119698D01*
X11448753Y-13119698D02*
X11458277Y-13138746D01*
X11458277Y-13138746D02*
X11458277Y-13195888D01*
X11458277Y-13195888D02*
X11448753Y-13214936D01*
X11448753Y-13214936D02*
X11439230Y-13224460D01*
X11439230Y-13224460D02*
X11420182Y-13233984D01*
X11420182Y-13233984D02*
X11391610Y-13233984D01*
X11572563Y-13233984D02*
X11553515Y-13224460D01*
X11553515Y-13224460D02*
X11543991Y-13205412D01*
X11543991Y-13205412D02*
X11543991Y-13033984D01*
X11724944Y-13224460D02*
X11705896Y-13233984D01*
X11705896Y-13233984D02*
X11667801Y-13233984D01*
X11667801Y-13233984D02*
X11648753Y-13224460D01*
X11648753Y-13224460D02*
X11639230Y-13205412D01*
X11639230Y-13205412D02*
X11639230Y-13129222D01*
X11639230Y-13129222D02*
X11648753Y-13110174D01*
X11648753Y-13110174D02*
X11667801Y-13100650D01*
X11667801Y-13100650D02*
X11705896Y-13100650D01*
X11705896Y-13100650D02*
X11724944Y-13110174D01*
X11724944Y-13110174D02*
X11734468Y-13129222D01*
X11734468Y-13129222D02*
X11734468Y-13148269D01*
X11734468Y-13148269D02*
X11639230Y-13167317D01*
X11810658Y-13224460D02*
X11829706Y-13233984D01*
X11829706Y-13233984D02*
X11867801Y-13233984D01*
X11867801Y-13233984D02*
X11886849Y-13224460D01*
X11886849Y-13224460D02*
X11896372Y-13205412D01*
X11896372Y-13205412D02*
X11896372Y-13195888D01*
X11896372Y-13195888D02*
X11886849Y-13176841D01*
X11886849Y-13176841D02*
X11867801Y-13167317D01*
X11867801Y-13167317D02*
X11839230Y-13167317D01*
X11839230Y-13167317D02*
X11820182Y-13157793D01*
X11820182Y-13157793D02*
X11810658Y-13138746D01*
X11810658Y-13138746D02*
X11810658Y-13129222D01*
X11810658Y-13129222D02*
X11820182Y-13110174D01*
X11820182Y-13110174D02*
X11839230Y-13100650D01*
X11839230Y-13100650D02*
X11867801Y-13100650D01*
X11867801Y-13100650D02*
X11886849Y-13110174D01*
X11963039Y-13310174D02*
X11972563Y-13300650D01*
X11972563Y-13300650D02*
X11991611Y-13272079D01*
X11991611Y-13272079D02*
X12001134Y-13253031D01*
X12001134Y-13253031D02*
X12010658Y-13224460D01*
X12010658Y-13224460D02*
X12020182Y-13176841D01*
X12020182Y-13176841D02*
X12020182Y-13138746D01*
X12020182Y-13138746D02*
X12010658Y-13091127D01*
X12010658Y-13091127D02*
X12001134Y-13062555D01*
X12001134Y-13062555D02*
X11991611Y-13043508D01*
X11991611Y-13043508D02*
X11972563Y-13014936D01*
X11972563Y-13014936D02*
X11963039Y-13005412D01*
D13*
X6997500Y-13406500D02*
G75*
G02*
X6867500Y-13406500I-65000J0D01*
G01*
X6867500Y-13406500D02*
G75*
G02*
X6997500Y-13406500I65000J0D01*
G01*
D11*
X7363039Y-13497984D02*
X7248753Y-13497984D01*
X7305896Y-13497984D02*
X7305896Y-13297984D01*
X7305896Y-13297984D02*
X7286848Y-13326555D01*
X7286848Y-13326555D02*
X7267801Y-13345603D01*
X7267801Y-13345603D02*
X7248753Y-13355127D01*
X7448753Y-13478936D02*
X7458277Y-13488460D01*
X7458277Y-13488460D02*
X7448753Y-13497984D01*
X7448753Y-13497984D02*
X7439229Y-13488460D01*
X7439229Y-13488460D02*
X7448753Y-13478936D01*
X7448753Y-13478936D02*
X7448753Y-13497984D01*
X7524943Y-13297984D02*
X7648753Y-13297984D01*
X7648753Y-13297984D02*
X7582086Y-13374174D01*
X7582086Y-13374174D02*
X7610658Y-13374174D01*
X7610658Y-13374174D02*
X7629705Y-13383698D01*
X7629705Y-13383698D02*
X7639229Y-13393222D01*
X7639229Y-13393222D02*
X7648753Y-13412269D01*
X7648753Y-13412269D02*
X7648753Y-13459888D01*
X7648753Y-13459888D02*
X7639229Y-13478936D01*
X7639229Y-13478936D02*
X7629705Y-13488460D01*
X7629705Y-13488460D02*
X7610658Y-13497984D01*
X7610658Y-13497984D02*
X7553515Y-13497984D01*
X7553515Y-13497984D02*
X7534467Y-13488460D01*
X7534467Y-13488460D02*
X7524943Y-13478936D01*
X7772562Y-13297984D02*
X7791610Y-13297984D01*
X7791610Y-13297984D02*
X7810658Y-13307508D01*
X7810658Y-13307508D02*
X7820182Y-13317031D01*
X7820182Y-13317031D02*
X7829705Y-13336079D01*
X7829705Y-13336079D02*
X7839229Y-13374174D01*
X7839229Y-13374174D02*
X7839229Y-13421793D01*
X7839229Y-13421793D02*
X7829705Y-13459888D01*
X7829705Y-13459888D02*
X7820182Y-13478936D01*
X7820182Y-13478936D02*
X7810658Y-13488460D01*
X7810658Y-13488460D02*
X7791610Y-13497984D01*
X7791610Y-13497984D02*
X7772562Y-13497984D01*
X7772562Y-13497984D02*
X7753515Y-13488460D01*
X7753515Y-13488460D02*
X7743991Y-13478936D01*
X7743991Y-13478936D02*
X7734467Y-13459888D01*
X7734467Y-13459888D02*
X7724943Y-13421793D01*
X7724943Y-13421793D02*
X7724943Y-13374174D01*
X7724943Y-13374174D02*
X7734467Y-13336079D01*
X7734467Y-13336079D02*
X7743991Y-13317031D01*
X7743991Y-13317031D02*
X7753515Y-13307508D01*
X7753515Y-13307508D02*
X7772562Y-13297984D01*
X7963039Y-13297984D02*
X7982086Y-13297984D01*
X7982086Y-13297984D02*
X8001134Y-13307508D01*
X8001134Y-13307508D02*
X8010658Y-13317031D01*
X8010658Y-13317031D02*
X8020182Y-13336079D01*
X8020182Y-13336079D02*
X8029705Y-13374174D01*
X8029705Y-13374174D02*
X8029705Y-13421793D01*
X8029705Y-13421793D02*
X8020182Y-13459888D01*
X8020182Y-13459888D02*
X8010658Y-13478936D01*
X8010658Y-13478936D02*
X8001134Y-13488460D01*
X8001134Y-13488460D02*
X7982086Y-13497984D01*
X7982086Y-13497984D02*
X7963039Y-13497984D01*
X7963039Y-13497984D02*
X7943991Y-13488460D01*
X7943991Y-13488460D02*
X7934467Y-13478936D01*
X7934467Y-13478936D02*
X7924943Y-13459888D01*
X7924943Y-13459888D02*
X7915420Y-13421793D01*
X7915420Y-13421793D02*
X7915420Y-13374174D01*
X7915420Y-13374174D02*
X7924943Y-13336079D01*
X7924943Y-13336079D02*
X7934467Y-13317031D01*
X7934467Y-13317031D02*
X7943991Y-13307508D01*
X7943991Y-13307508D02*
X7963039Y-13297984D01*
X8115420Y-13497984D02*
X8115420Y-13364650D01*
X8115420Y-13383698D02*
X8124943Y-13374174D01*
X8124943Y-13374174D02*
X8143991Y-13364650D01*
X8143991Y-13364650D02*
X8172563Y-13364650D01*
X8172563Y-13364650D02*
X8191610Y-13374174D01*
X8191610Y-13374174D02*
X8201134Y-13393222D01*
X8201134Y-13393222D02*
X8201134Y-13497984D01*
X8201134Y-13393222D02*
X8210658Y-13374174D01*
X8210658Y-13374174D02*
X8229705Y-13364650D01*
X8229705Y-13364650D02*
X8258277Y-13364650D01*
X8258277Y-13364650D02*
X8277324Y-13374174D01*
X8277324Y-13374174D02*
X8286848Y-13393222D01*
X8286848Y-13393222D02*
X8286848Y-13497984D01*
X8382086Y-13497984D02*
X8382086Y-13364650D01*
X8382086Y-13383698D02*
X8391610Y-13374174D01*
X8391610Y-13374174D02*
X8410658Y-13364650D01*
X8410658Y-13364650D02*
X8439229Y-13364650D01*
X8439229Y-13364650D02*
X8458277Y-13374174D01*
X8458277Y-13374174D02*
X8467801Y-13393222D01*
X8467801Y-13393222D02*
X8467801Y-13497984D01*
X8467801Y-13393222D02*
X8477325Y-13374174D01*
X8477325Y-13374174D02*
X8496372Y-13364650D01*
X8496372Y-13364650D02*
X8524944Y-13364650D01*
X8524944Y-13364650D02*
X8543991Y-13374174D01*
X8543991Y-13374174D02*
X8553515Y-13393222D01*
X8553515Y-13393222D02*
X8553515Y-13497984D01*
X8943991Y-13288460D02*
X8772563Y-13545603D01*
X9201134Y-13297984D02*
X9220182Y-13297984D01*
X9220182Y-13297984D02*
X9239229Y-13307508D01*
X9239229Y-13307508D02*
X9248753Y-13317031D01*
X9248753Y-13317031D02*
X9258277Y-13336079D01*
X9258277Y-13336079D02*
X9267801Y-13374174D01*
X9267801Y-13374174D02*
X9267801Y-13421793D01*
X9267801Y-13421793D02*
X9258277Y-13459888D01*
X9258277Y-13459888D02*
X9248753Y-13478936D01*
X9248753Y-13478936D02*
X9239229Y-13488460D01*
X9239229Y-13488460D02*
X9220182Y-13497984D01*
X9220182Y-13497984D02*
X9201134Y-13497984D01*
X9201134Y-13497984D02*
X9182087Y-13488460D01*
X9182087Y-13488460D02*
X9172563Y-13478936D01*
X9172563Y-13478936D02*
X9163039Y-13459888D01*
X9163039Y-13459888D02*
X9153515Y-13421793D01*
X9153515Y-13421793D02*
X9153515Y-13374174D01*
X9153515Y-13374174D02*
X9163039Y-13336079D01*
X9163039Y-13336079D02*
X9172563Y-13317031D01*
X9172563Y-13317031D02*
X9182087Y-13307508D01*
X9182087Y-13307508D02*
X9201134Y-13297984D01*
X9353515Y-13478936D02*
X9363039Y-13488460D01*
X9363039Y-13488460D02*
X9353515Y-13497984D01*
X9353515Y-13497984D02*
X9343991Y-13488460D01*
X9343991Y-13488460D02*
X9353515Y-13478936D01*
X9353515Y-13478936D02*
X9353515Y-13497984D01*
X9486848Y-13297984D02*
X9505896Y-13297984D01*
X9505896Y-13297984D02*
X9524944Y-13307508D01*
X9524944Y-13307508D02*
X9534468Y-13317031D01*
X9534468Y-13317031D02*
X9543991Y-13336079D01*
X9543991Y-13336079D02*
X9553515Y-13374174D01*
X9553515Y-13374174D02*
X9553515Y-13421793D01*
X9553515Y-13421793D02*
X9543991Y-13459888D01*
X9543991Y-13459888D02*
X9534468Y-13478936D01*
X9534468Y-13478936D02*
X9524944Y-13488460D01*
X9524944Y-13488460D02*
X9505896Y-13497984D01*
X9505896Y-13497984D02*
X9486848Y-13497984D01*
X9486848Y-13497984D02*
X9467801Y-13488460D01*
X9467801Y-13488460D02*
X9458277Y-13478936D01*
X9458277Y-13478936D02*
X9448753Y-13459888D01*
X9448753Y-13459888D02*
X9439229Y-13421793D01*
X9439229Y-13421793D02*
X9439229Y-13374174D01*
X9439229Y-13374174D02*
X9448753Y-13336079D01*
X9448753Y-13336079D02*
X9458277Y-13317031D01*
X9458277Y-13317031D02*
X9467801Y-13307508D01*
X9467801Y-13307508D02*
X9486848Y-13297984D01*
X9734468Y-13297984D02*
X9639229Y-13297984D01*
X9639229Y-13297984D02*
X9629706Y-13393222D01*
X9629706Y-13393222D02*
X9639229Y-13383698D01*
X9639229Y-13383698D02*
X9658277Y-13374174D01*
X9658277Y-13374174D02*
X9705896Y-13374174D01*
X9705896Y-13374174D02*
X9724944Y-13383698D01*
X9724944Y-13383698D02*
X9734468Y-13393222D01*
X9734468Y-13393222D02*
X9743991Y-13412269D01*
X9743991Y-13412269D02*
X9743991Y-13459888D01*
X9743991Y-13459888D02*
X9734468Y-13478936D01*
X9734468Y-13478936D02*
X9724944Y-13488460D01*
X9724944Y-13488460D02*
X9705896Y-13497984D01*
X9705896Y-13497984D02*
X9658277Y-13497984D01*
X9658277Y-13497984D02*
X9639229Y-13488460D01*
X9639229Y-13488460D02*
X9629706Y-13478936D01*
X9934468Y-13497984D02*
X9820182Y-13497984D01*
X9877325Y-13497984D02*
X9877325Y-13297984D01*
X9877325Y-13297984D02*
X9858277Y-13326555D01*
X9858277Y-13326555D02*
X9839229Y-13345603D01*
X9839229Y-13345603D02*
X9820182Y-13355127D01*
X10010658Y-13317031D02*
X10020182Y-13307508D01*
X10020182Y-13307508D02*
X10039229Y-13297984D01*
X10039229Y-13297984D02*
X10086849Y-13297984D01*
X10086849Y-13297984D02*
X10105896Y-13307508D01*
X10105896Y-13307508D02*
X10115420Y-13317031D01*
X10115420Y-13317031D02*
X10124944Y-13336079D01*
X10124944Y-13336079D02*
X10124944Y-13355127D01*
X10124944Y-13355127D02*
X10115420Y-13383698D01*
X10115420Y-13383698D02*
X10001134Y-13497984D01*
X10001134Y-13497984D02*
X10124944Y-13497984D01*
X10201134Y-13297984D02*
X10201134Y-13336079D01*
X10277325Y-13297984D02*
X10277325Y-13336079D01*
X10572563Y-13574174D02*
X10563039Y-13564650D01*
X10563039Y-13564650D02*
X10543991Y-13536079D01*
X10543991Y-13536079D02*
X10534468Y-13517031D01*
X10534468Y-13517031D02*
X10524944Y-13488460D01*
X10524944Y-13488460D02*
X10515420Y-13440841D01*
X10515420Y-13440841D02*
X10515420Y-13402746D01*
X10515420Y-13402746D02*
X10524944Y-13355127D01*
X10524944Y-13355127D02*
X10534468Y-13326555D01*
X10534468Y-13326555D02*
X10543991Y-13307508D01*
X10543991Y-13307508D02*
X10563039Y-13278936D01*
X10563039Y-13278936D02*
X10572563Y-13269412D01*
X10639230Y-13317031D02*
X10648753Y-13307508D01*
X10648753Y-13307508D02*
X10667801Y-13297984D01*
X10667801Y-13297984D02*
X10715420Y-13297984D01*
X10715420Y-13297984D02*
X10734468Y-13307508D01*
X10734468Y-13307508D02*
X10743991Y-13317031D01*
X10743991Y-13317031D02*
X10753515Y-13336079D01*
X10753515Y-13336079D02*
X10753515Y-13355127D01*
X10753515Y-13355127D02*
X10743991Y-13383698D01*
X10743991Y-13383698D02*
X10629706Y-13497984D01*
X10629706Y-13497984D02*
X10753515Y-13497984D01*
X10991611Y-13497984D02*
X10991611Y-13297984D01*
X11077325Y-13497984D02*
X11077325Y-13393222D01*
X11077325Y-13393222D02*
X11067801Y-13374174D01*
X11067801Y-13374174D02*
X11048753Y-13364650D01*
X11048753Y-13364650D02*
X11020182Y-13364650D01*
X11020182Y-13364650D02*
X11001134Y-13374174D01*
X11001134Y-13374174D02*
X10991611Y-13383698D01*
X11201134Y-13497984D02*
X11182087Y-13488460D01*
X11182087Y-13488460D02*
X11172563Y-13478936D01*
X11172563Y-13478936D02*
X11163039Y-13459888D01*
X11163039Y-13459888D02*
X11163039Y-13402746D01*
X11163039Y-13402746D02*
X11172563Y-13383698D01*
X11172563Y-13383698D02*
X11182087Y-13374174D01*
X11182087Y-13374174D02*
X11201134Y-13364650D01*
X11201134Y-13364650D02*
X11229706Y-13364650D01*
X11229706Y-13364650D02*
X11248753Y-13374174D01*
X11248753Y-13374174D02*
X11258277Y-13383698D01*
X11258277Y-13383698D02*
X11267801Y-13402746D01*
X11267801Y-13402746D02*
X11267801Y-13459888D01*
X11267801Y-13459888D02*
X11258277Y-13478936D01*
X11258277Y-13478936D02*
X11248753Y-13488460D01*
X11248753Y-13488460D02*
X11229706Y-13497984D01*
X11229706Y-13497984D02*
X11201134Y-13497984D01*
X11382087Y-13497984D02*
X11363039Y-13488460D01*
X11363039Y-13488460D02*
X11353515Y-13469412D01*
X11353515Y-13469412D02*
X11353515Y-13297984D01*
X11534468Y-13488460D02*
X11515420Y-13497984D01*
X11515420Y-13497984D02*
X11477325Y-13497984D01*
X11477325Y-13497984D02*
X11458277Y-13488460D01*
X11458277Y-13488460D02*
X11448753Y-13469412D01*
X11448753Y-13469412D02*
X11448753Y-13393222D01*
X11448753Y-13393222D02*
X11458277Y-13374174D01*
X11458277Y-13374174D02*
X11477325Y-13364650D01*
X11477325Y-13364650D02*
X11515420Y-13364650D01*
X11515420Y-13364650D02*
X11534468Y-13374174D01*
X11534468Y-13374174D02*
X11543991Y-13393222D01*
X11543991Y-13393222D02*
X11543991Y-13412269D01*
X11543991Y-13412269D02*
X11448753Y-13431317D01*
X11620182Y-13488460D02*
X11639230Y-13497984D01*
X11639230Y-13497984D02*
X11677325Y-13497984D01*
X11677325Y-13497984D02*
X11696372Y-13488460D01*
X11696372Y-13488460D02*
X11705896Y-13469412D01*
X11705896Y-13469412D02*
X11705896Y-13459888D01*
X11705896Y-13459888D02*
X11696372Y-13440841D01*
X11696372Y-13440841D02*
X11677325Y-13431317D01*
X11677325Y-13431317D02*
X11648753Y-13431317D01*
X11648753Y-13431317D02*
X11629706Y-13421793D01*
X11629706Y-13421793D02*
X11620182Y-13402746D01*
X11620182Y-13402746D02*
X11620182Y-13393222D01*
X11620182Y-13393222D02*
X11629706Y-13374174D01*
X11629706Y-13374174D02*
X11648753Y-13364650D01*
X11648753Y-13364650D02*
X11677325Y-13364650D01*
X11677325Y-13364650D02*
X11696372Y-13374174D01*
X11772563Y-13574174D02*
X11782087Y-13564650D01*
X11782087Y-13564650D02*
X11801134Y-13536079D01*
X11801134Y-13536079D02*
X11810658Y-13517031D01*
X11810658Y-13517031D02*
X11820182Y-13488460D01*
X11820182Y-13488460D02*
X11829706Y-13440841D01*
X11829706Y-13440841D02*
X11829706Y-13402746D01*
X11829706Y-13402746D02*
X11820182Y-13355127D01*
X11820182Y-13355127D02*
X11810658Y-13326555D01*
X11810658Y-13326555D02*
X11801134Y-13307508D01*
X11801134Y-13307508D02*
X11782087Y-13278936D01*
X11782087Y-13278936D02*
X11772563Y-13269412D01*
D14*
X6922500Y-13595500D02*
X6922500Y-13745500D01*
X6847500Y-13670500D02*
X6997500Y-13670500D01*
D11*
X7363039Y-13761984D02*
X7248753Y-13761984D01*
X7305896Y-13761984D02*
X7305896Y-13561984D01*
X7305896Y-13561984D02*
X7286848Y-13590555D01*
X7286848Y-13590555D02*
X7267801Y-13609603D01*
X7267801Y-13609603D02*
X7248753Y-13619127D01*
X7448753Y-13742936D02*
X7458277Y-13752460D01*
X7458277Y-13752460D02*
X7448753Y-13761984D01*
X7448753Y-13761984D02*
X7439229Y-13752460D01*
X7439229Y-13752460D02*
X7448753Y-13742936D01*
X7448753Y-13742936D02*
X7448753Y-13761984D01*
X7639229Y-13561984D02*
X7543991Y-13561984D01*
X7543991Y-13561984D02*
X7534467Y-13657222D01*
X7534467Y-13657222D02*
X7543991Y-13647698D01*
X7543991Y-13647698D02*
X7563039Y-13638174D01*
X7563039Y-13638174D02*
X7610658Y-13638174D01*
X7610658Y-13638174D02*
X7629705Y-13647698D01*
X7629705Y-13647698D02*
X7639229Y-13657222D01*
X7639229Y-13657222D02*
X7648753Y-13676269D01*
X7648753Y-13676269D02*
X7648753Y-13723888D01*
X7648753Y-13723888D02*
X7639229Y-13742936D01*
X7639229Y-13742936D02*
X7629705Y-13752460D01*
X7629705Y-13752460D02*
X7610658Y-13761984D01*
X7610658Y-13761984D02*
X7563039Y-13761984D01*
X7563039Y-13761984D02*
X7543991Y-13752460D01*
X7543991Y-13752460D02*
X7534467Y-13742936D01*
X7772562Y-13561984D02*
X7791610Y-13561984D01*
X7791610Y-13561984D02*
X7810658Y-13571508D01*
X7810658Y-13571508D02*
X7820182Y-13581031D01*
X7820182Y-13581031D02*
X7829705Y-13600079D01*
X7829705Y-13600079D02*
X7839229Y-13638174D01*
X7839229Y-13638174D02*
X7839229Y-13685793D01*
X7839229Y-13685793D02*
X7829705Y-13723888D01*
X7829705Y-13723888D02*
X7820182Y-13742936D01*
X7820182Y-13742936D02*
X7810658Y-13752460D01*
X7810658Y-13752460D02*
X7791610Y-13761984D01*
X7791610Y-13761984D02*
X7772562Y-13761984D01*
X7772562Y-13761984D02*
X7753515Y-13752460D01*
X7753515Y-13752460D02*
X7743991Y-13742936D01*
X7743991Y-13742936D02*
X7734467Y-13723888D01*
X7734467Y-13723888D02*
X7724943Y-13685793D01*
X7724943Y-13685793D02*
X7724943Y-13638174D01*
X7724943Y-13638174D02*
X7734467Y-13600079D01*
X7734467Y-13600079D02*
X7743991Y-13581031D01*
X7743991Y-13581031D02*
X7753515Y-13571508D01*
X7753515Y-13571508D02*
X7772562Y-13561984D01*
X7963039Y-13561984D02*
X7982086Y-13561984D01*
X7982086Y-13561984D02*
X8001134Y-13571508D01*
X8001134Y-13571508D02*
X8010658Y-13581031D01*
X8010658Y-13581031D02*
X8020182Y-13600079D01*
X8020182Y-13600079D02*
X8029705Y-13638174D01*
X8029705Y-13638174D02*
X8029705Y-13685793D01*
X8029705Y-13685793D02*
X8020182Y-13723888D01*
X8020182Y-13723888D02*
X8010658Y-13742936D01*
X8010658Y-13742936D02*
X8001134Y-13752460D01*
X8001134Y-13752460D02*
X7982086Y-13761984D01*
X7982086Y-13761984D02*
X7963039Y-13761984D01*
X7963039Y-13761984D02*
X7943991Y-13752460D01*
X7943991Y-13752460D02*
X7934467Y-13742936D01*
X7934467Y-13742936D02*
X7924943Y-13723888D01*
X7924943Y-13723888D02*
X7915420Y-13685793D01*
X7915420Y-13685793D02*
X7915420Y-13638174D01*
X7915420Y-13638174D02*
X7924943Y-13600079D01*
X7924943Y-13600079D02*
X7934467Y-13581031D01*
X7934467Y-13581031D02*
X7943991Y-13571508D01*
X7943991Y-13571508D02*
X7963039Y-13561984D01*
X8115420Y-13761984D02*
X8115420Y-13628650D01*
X8115420Y-13647698D02*
X8124943Y-13638174D01*
X8124943Y-13638174D02*
X8143991Y-13628650D01*
X8143991Y-13628650D02*
X8172563Y-13628650D01*
X8172563Y-13628650D02*
X8191610Y-13638174D01*
X8191610Y-13638174D02*
X8201134Y-13657222D01*
X8201134Y-13657222D02*
X8201134Y-13761984D01*
X8201134Y-13657222D02*
X8210658Y-13638174D01*
X8210658Y-13638174D02*
X8229705Y-13628650D01*
X8229705Y-13628650D02*
X8258277Y-13628650D01*
X8258277Y-13628650D02*
X8277324Y-13638174D01*
X8277324Y-13638174D02*
X8286848Y-13657222D01*
X8286848Y-13657222D02*
X8286848Y-13761984D01*
X8382086Y-13761984D02*
X8382086Y-13628650D01*
X8382086Y-13647698D02*
X8391610Y-13638174D01*
X8391610Y-13638174D02*
X8410658Y-13628650D01*
X8410658Y-13628650D02*
X8439229Y-13628650D01*
X8439229Y-13628650D02*
X8458277Y-13638174D01*
X8458277Y-13638174D02*
X8467801Y-13657222D01*
X8467801Y-13657222D02*
X8467801Y-13761984D01*
X8467801Y-13657222D02*
X8477325Y-13638174D01*
X8477325Y-13638174D02*
X8496372Y-13628650D01*
X8496372Y-13628650D02*
X8524944Y-13628650D01*
X8524944Y-13628650D02*
X8543991Y-13638174D01*
X8543991Y-13638174D02*
X8553515Y-13657222D01*
X8553515Y-13657222D02*
X8553515Y-13761984D01*
X8943991Y-13552460D02*
X8772563Y-13809603D01*
X9201134Y-13561984D02*
X9220182Y-13561984D01*
X9220182Y-13561984D02*
X9239229Y-13571508D01*
X9239229Y-13571508D02*
X9248753Y-13581031D01*
X9248753Y-13581031D02*
X9258277Y-13600079D01*
X9258277Y-13600079D02*
X9267801Y-13638174D01*
X9267801Y-13638174D02*
X9267801Y-13685793D01*
X9267801Y-13685793D02*
X9258277Y-13723888D01*
X9258277Y-13723888D02*
X9248753Y-13742936D01*
X9248753Y-13742936D02*
X9239229Y-13752460D01*
X9239229Y-13752460D02*
X9220182Y-13761984D01*
X9220182Y-13761984D02*
X9201134Y-13761984D01*
X9201134Y-13761984D02*
X9182087Y-13752460D01*
X9182087Y-13752460D02*
X9172563Y-13742936D01*
X9172563Y-13742936D02*
X9163039Y-13723888D01*
X9163039Y-13723888D02*
X9153515Y-13685793D01*
X9153515Y-13685793D02*
X9153515Y-13638174D01*
X9153515Y-13638174D02*
X9163039Y-13600079D01*
X9163039Y-13600079D02*
X9172563Y-13581031D01*
X9172563Y-13581031D02*
X9182087Y-13571508D01*
X9182087Y-13571508D02*
X9201134Y-13561984D01*
X9353515Y-13742936D02*
X9363039Y-13752460D01*
X9363039Y-13752460D02*
X9353515Y-13761984D01*
X9353515Y-13761984D02*
X9343991Y-13752460D01*
X9343991Y-13752460D02*
X9353515Y-13742936D01*
X9353515Y-13742936D02*
X9353515Y-13761984D01*
X9486848Y-13561984D02*
X9505896Y-13561984D01*
X9505896Y-13561984D02*
X9524944Y-13571508D01*
X9524944Y-13571508D02*
X9534468Y-13581031D01*
X9534468Y-13581031D02*
X9543991Y-13600079D01*
X9543991Y-13600079D02*
X9553515Y-13638174D01*
X9553515Y-13638174D02*
X9553515Y-13685793D01*
X9553515Y-13685793D02*
X9543991Y-13723888D01*
X9543991Y-13723888D02*
X9534468Y-13742936D01*
X9534468Y-13742936D02*
X9524944Y-13752460D01*
X9524944Y-13752460D02*
X9505896Y-13761984D01*
X9505896Y-13761984D02*
X9486848Y-13761984D01*
X9486848Y-13761984D02*
X9467801Y-13752460D01*
X9467801Y-13752460D02*
X9458277Y-13742936D01*
X9458277Y-13742936D02*
X9448753Y-13723888D01*
X9448753Y-13723888D02*
X9439229Y-13685793D01*
X9439229Y-13685793D02*
X9439229Y-13638174D01*
X9439229Y-13638174D02*
X9448753Y-13600079D01*
X9448753Y-13600079D02*
X9458277Y-13581031D01*
X9458277Y-13581031D02*
X9467801Y-13571508D01*
X9467801Y-13571508D02*
X9486848Y-13561984D01*
X9734468Y-13561984D02*
X9639229Y-13561984D01*
X9639229Y-13561984D02*
X9629706Y-13657222D01*
X9629706Y-13657222D02*
X9639229Y-13647698D01*
X9639229Y-13647698D02*
X9658277Y-13638174D01*
X9658277Y-13638174D02*
X9705896Y-13638174D01*
X9705896Y-13638174D02*
X9724944Y-13647698D01*
X9724944Y-13647698D02*
X9734468Y-13657222D01*
X9734468Y-13657222D02*
X9743991Y-13676269D01*
X9743991Y-13676269D02*
X9743991Y-13723888D01*
X9743991Y-13723888D02*
X9734468Y-13742936D01*
X9734468Y-13742936D02*
X9724944Y-13752460D01*
X9724944Y-13752460D02*
X9705896Y-13761984D01*
X9705896Y-13761984D02*
X9658277Y-13761984D01*
X9658277Y-13761984D02*
X9639229Y-13752460D01*
X9639229Y-13752460D02*
X9629706Y-13742936D01*
X9839229Y-13761984D02*
X9877325Y-13761984D01*
X9877325Y-13761984D02*
X9896372Y-13752460D01*
X9896372Y-13752460D02*
X9905896Y-13742936D01*
X9905896Y-13742936D02*
X9924944Y-13714365D01*
X9924944Y-13714365D02*
X9934468Y-13676269D01*
X9934468Y-13676269D02*
X9934468Y-13600079D01*
X9934468Y-13600079D02*
X9924944Y-13581031D01*
X9924944Y-13581031D02*
X9915420Y-13571508D01*
X9915420Y-13571508D02*
X9896372Y-13561984D01*
X9896372Y-13561984D02*
X9858277Y-13561984D01*
X9858277Y-13561984D02*
X9839229Y-13571508D01*
X9839229Y-13571508D02*
X9829706Y-13581031D01*
X9829706Y-13581031D02*
X9820182Y-13600079D01*
X9820182Y-13600079D02*
X9820182Y-13647698D01*
X9820182Y-13647698D02*
X9829706Y-13666746D01*
X9829706Y-13666746D02*
X9839229Y-13676269D01*
X9839229Y-13676269D02*
X9858277Y-13685793D01*
X9858277Y-13685793D02*
X9896372Y-13685793D01*
X9896372Y-13685793D02*
X9915420Y-13676269D01*
X9915420Y-13676269D02*
X9924944Y-13666746D01*
X9924944Y-13666746D02*
X9934468Y-13647698D01*
X10124944Y-13761984D02*
X10010658Y-13761984D01*
X10067801Y-13761984D02*
X10067801Y-13561984D01*
X10067801Y-13561984D02*
X10048753Y-13590555D01*
X10048753Y-13590555D02*
X10029706Y-13609603D01*
X10029706Y-13609603D02*
X10010658Y-13619127D01*
X10201134Y-13561984D02*
X10201134Y-13600079D01*
X10277325Y-13561984D02*
X10277325Y-13600079D01*
X10572563Y-13838174D02*
X10563039Y-13828650D01*
X10563039Y-13828650D02*
X10543991Y-13800079D01*
X10543991Y-13800079D02*
X10534468Y-13781031D01*
X10534468Y-13781031D02*
X10524944Y-13752460D01*
X10524944Y-13752460D02*
X10515420Y-13704841D01*
X10515420Y-13704841D02*
X10515420Y-13666746D01*
X10515420Y-13666746D02*
X10524944Y-13619127D01*
X10524944Y-13619127D02*
X10534468Y-13590555D01*
X10534468Y-13590555D02*
X10543991Y-13571508D01*
X10543991Y-13571508D02*
X10563039Y-13542936D01*
X10563039Y-13542936D02*
X10572563Y-13533412D01*
X10734468Y-13561984D02*
X10696372Y-13561984D01*
X10696372Y-13561984D02*
X10677325Y-13571508D01*
X10677325Y-13571508D02*
X10667801Y-13581031D01*
X10667801Y-13581031D02*
X10648753Y-13609603D01*
X10648753Y-13609603D02*
X10639230Y-13647698D01*
X10639230Y-13647698D02*
X10639230Y-13723888D01*
X10639230Y-13723888D02*
X10648753Y-13742936D01*
X10648753Y-13742936D02*
X10658277Y-13752460D01*
X10658277Y-13752460D02*
X10677325Y-13761984D01*
X10677325Y-13761984D02*
X10715420Y-13761984D01*
X10715420Y-13761984D02*
X10734468Y-13752460D01*
X10734468Y-13752460D02*
X10743991Y-13742936D01*
X10743991Y-13742936D02*
X10753515Y-13723888D01*
X10753515Y-13723888D02*
X10753515Y-13676269D01*
X10753515Y-13676269D02*
X10743991Y-13657222D01*
X10743991Y-13657222D02*
X10734468Y-13647698D01*
X10734468Y-13647698D02*
X10715420Y-13638174D01*
X10715420Y-13638174D02*
X10677325Y-13638174D01*
X10677325Y-13638174D02*
X10658277Y-13647698D01*
X10658277Y-13647698D02*
X10648753Y-13657222D01*
X10648753Y-13657222D02*
X10639230Y-13676269D01*
X10991611Y-13761984D02*
X10991611Y-13561984D01*
X11077325Y-13761984D02*
X11077325Y-13657222D01*
X11077325Y-13657222D02*
X11067801Y-13638174D01*
X11067801Y-13638174D02*
X11048753Y-13628650D01*
X11048753Y-13628650D02*
X11020182Y-13628650D01*
X11020182Y-13628650D02*
X11001134Y-13638174D01*
X11001134Y-13638174D02*
X10991611Y-13647698D01*
X11201134Y-13761984D02*
X11182087Y-13752460D01*
X11182087Y-13752460D02*
X11172563Y-13742936D01*
X11172563Y-13742936D02*
X11163039Y-13723888D01*
X11163039Y-13723888D02*
X11163039Y-13666746D01*
X11163039Y-13666746D02*
X11172563Y-13647698D01*
X11172563Y-13647698D02*
X11182087Y-13638174D01*
X11182087Y-13638174D02*
X11201134Y-13628650D01*
X11201134Y-13628650D02*
X11229706Y-13628650D01*
X11229706Y-13628650D02*
X11248753Y-13638174D01*
X11248753Y-13638174D02*
X11258277Y-13647698D01*
X11258277Y-13647698D02*
X11267801Y-13666746D01*
X11267801Y-13666746D02*
X11267801Y-13723888D01*
X11267801Y-13723888D02*
X11258277Y-13742936D01*
X11258277Y-13742936D02*
X11248753Y-13752460D01*
X11248753Y-13752460D02*
X11229706Y-13761984D01*
X11229706Y-13761984D02*
X11201134Y-13761984D01*
X11382087Y-13761984D02*
X11363039Y-13752460D01*
X11363039Y-13752460D02*
X11353515Y-13733412D01*
X11353515Y-13733412D02*
X11353515Y-13561984D01*
X11534468Y-13752460D02*
X11515420Y-13761984D01*
X11515420Y-13761984D02*
X11477325Y-13761984D01*
X11477325Y-13761984D02*
X11458277Y-13752460D01*
X11458277Y-13752460D02*
X11448753Y-13733412D01*
X11448753Y-13733412D02*
X11448753Y-13657222D01*
X11448753Y-13657222D02*
X11458277Y-13638174D01*
X11458277Y-13638174D02*
X11477325Y-13628650D01*
X11477325Y-13628650D02*
X11515420Y-13628650D01*
X11515420Y-13628650D02*
X11534468Y-13638174D01*
X11534468Y-13638174D02*
X11543991Y-13657222D01*
X11543991Y-13657222D02*
X11543991Y-13676269D01*
X11543991Y-13676269D02*
X11448753Y-13695317D01*
X11620182Y-13752460D02*
X11639230Y-13761984D01*
X11639230Y-13761984D02*
X11677325Y-13761984D01*
X11677325Y-13761984D02*
X11696372Y-13752460D01*
X11696372Y-13752460D02*
X11705896Y-13733412D01*
X11705896Y-13733412D02*
X11705896Y-13723888D01*
X11705896Y-13723888D02*
X11696372Y-13704841D01*
X11696372Y-13704841D02*
X11677325Y-13695317D01*
X11677325Y-13695317D02*
X11648753Y-13695317D01*
X11648753Y-13695317D02*
X11629706Y-13685793D01*
X11629706Y-13685793D02*
X11620182Y-13666746D01*
X11620182Y-13666746D02*
X11620182Y-13657222D01*
X11620182Y-13657222D02*
X11629706Y-13638174D01*
X11629706Y-13638174D02*
X11648753Y-13628650D01*
X11648753Y-13628650D02*
X11677325Y-13628650D01*
X11677325Y-13628650D02*
X11696372Y-13638174D01*
X11772563Y-13838174D02*
X11782087Y-13828650D01*
X11782087Y-13828650D02*
X11801134Y-13800079D01*
X11801134Y-13800079D02*
X11810658Y-13781031D01*
X11810658Y-13781031D02*
X11820182Y-13752460D01*
X11820182Y-13752460D02*
X11829706Y-13704841D01*
X11829706Y-13704841D02*
X11829706Y-13666746D01*
X11829706Y-13666746D02*
X11820182Y-13619127D01*
X11820182Y-13619127D02*
X11810658Y-13590555D01*
X11810658Y-13590555D02*
X11801134Y-13571508D01*
X11801134Y-13571508D02*
X11782087Y-13542936D01*
X11782087Y-13542936D02*
X11772563Y-13533412D01*
X6968211Y-14011211D02*
X6968211Y-13869789D01*
X6826789Y-13869789D01*
X6826789Y-14011211D01*
X6968211Y-14011211D01*
X7343991Y-13898650D02*
X7343991Y-14031984D01*
X7296372Y-13822460D02*
X7248753Y-13965317D01*
X7248753Y-13965317D02*
X7372562Y-13965317D01*
X7448753Y-14012936D02*
X7458277Y-14022460D01*
X7458277Y-14022460D02*
X7448753Y-14031984D01*
X7448753Y-14031984D02*
X7439229Y-14022460D01*
X7439229Y-14022460D02*
X7448753Y-14012936D01*
X7448753Y-14012936D02*
X7448753Y-14031984D01*
X7639229Y-13831984D02*
X7543991Y-13831984D01*
X7543991Y-13831984D02*
X7534467Y-13927222D01*
X7534467Y-13927222D02*
X7543991Y-13917698D01*
X7543991Y-13917698D02*
X7563039Y-13908174D01*
X7563039Y-13908174D02*
X7610658Y-13908174D01*
X7610658Y-13908174D02*
X7629705Y-13917698D01*
X7629705Y-13917698D02*
X7639229Y-13927222D01*
X7639229Y-13927222D02*
X7648753Y-13946269D01*
X7648753Y-13946269D02*
X7648753Y-13993888D01*
X7648753Y-13993888D02*
X7639229Y-14012936D01*
X7639229Y-14012936D02*
X7629705Y-14022460D01*
X7629705Y-14022460D02*
X7610658Y-14031984D01*
X7610658Y-14031984D02*
X7563039Y-14031984D01*
X7563039Y-14031984D02*
X7543991Y-14022460D01*
X7543991Y-14022460D02*
X7534467Y-14012936D01*
X7772562Y-13831984D02*
X7791610Y-13831984D01*
X7791610Y-13831984D02*
X7810658Y-13841508D01*
X7810658Y-13841508D02*
X7820182Y-13851031D01*
X7820182Y-13851031D02*
X7829705Y-13870079D01*
X7829705Y-13870079D02*
X7839229Y-13908174D01*
X7839229Y-13908174D02*
X7839229Y-13955793D01*
X7839229Y-13955793D02*
X7829705Y-13993888D01*
X7829705Y-13993888D02*
X7820182Y-14012936D01*
X7820182Y-14012936D02*
X7810658Y-14022460D01*
X7810658Y-14022460D02*
X7791610Y-14031984D01*
X7791610Y-14031984D02*
X7772562Y-14031984D01*
X7772562Y-14031984D02*
X7753515Y-14022460D01*
X7753515Y-14022460D02*
X7743991Y-14012936D01*
X7743991Y-14012936D02*
X7734467Y-13993888D01*
X7734467Y-13993888D02*
X7724943Y-13955793D01*
X7724943Y-13955793D02*
X7724943Y-13908174D01*
X7724943Y-13908174D02*
X7734467Y-13870079D01*
X7734467Y-13870079D02*
X7743991Y-13851031D01*
X7743991Y-13851031D02*
X7753515Y-13841508D01*
X7753515Y-13841508D02*
X7772562Y-13831984D01*
X7963039Y-13831984D02*
X7982086Y-13831984D01*
X7982086Y-13831984D02*
X8001134Y-13841508D01*
X8001134Y-13841508D02*
X8010658Y-13851031D01*
X8010658Y-13851031D02*
X8020182Y-13870079D01*
X8020182Y-13870079D02*
X8029705Y-13908174D01*
X8029705Y-13908174D02*
X8029705Y-13955793D01*
X8029705Y-13955793D02*
X8020182Y-13993888D01*
X8020182Y-13993888D02*
X8010658Y-14012936D01*
X8010658Y-14012936D02*
X8001134Y-14022460D01*
X8001134Y-14022460D02*
X7982086Y-14031984D01*
X7982086Y-14031984D02*
X7963039Y-14031984D01*
X7963039Y-14031984D02*
X7943991Y-14022460D01*
X7943991Y-14022460D02*
X7934467Y-14012936D01*
X7934467Y-14012936D02*
X7924943Y-13993888D01*
X7924943Y-13993888D02*
X7915420Y-13955793D01*
X7915420Y-13955793D02*
X7915420Y-13908174D01*
X7915420Y-13908174D02*
X7924943Y-13870079D01*
X7924943Y-13870079D02*
X7934467Y-13851031D01*
X7934467Y-13851031D02*
X7943991Y-13841508D01*
X7943991Y-13841508D02*
X7963039Y-13831984D01*
X8115420Y-14031984D02*
X8115420Y-13898650D01*
X8115420Y-13917698D02*
X8124943Y-13908174D01*
X8124943Y-13908174D02*
X8143991Y-13898650D01*
X8143991Y-13898650D02*
X8172563Y-13898650D01*
X8172563Y-13898650D02*
X8191610Y-13908174D01*
X8191610Y-13908174D02*
X8201134Y-13927222D01*
X8201134Y-13927222D02*
X8201134Y-14031984D01*
X8201134Y-13927222D02*
X8210658Y-13908174D01*
X8210658Y-13908174D02*
X8229705Y-13898650D01*
X8229705Y-13898650D02*
X8258277Y-13898650D01*
X8258277Y-13898650D02*
X8277324Y-13908174D01*
X8277324Y-13908174D02*
X8286848Y-13927222D01*
X8286848Y-13927222D02*
X8286848Y-14031984D01*
X8382086Y-14031984D02*
X8382086Y-13898650D01*
X8382086Y-13917698D02*
X8391610Y-13908174D01*
X8391610Y-13908174D02*
X8410658Y-13898650D01*
X8410658Y-13898650D02*
X8439229Y-13898650D01*
X8439229Y-13898650D02*
X8458277Y-13908174D01*
X8458277Y-13908174D02*
X8467801Y-13927222D01*
X8467801Y-13927222D02*
X8467801Y-14031984D01*
X8467801Y-13927222D02*
X8477325Y-13908174D01*
X8477325Y-13908174D02*
X8496372Y-13898650D01*
X8496372Y-13898650D02*
X8524944Y-13898650D01*
X8524944Y-13898650D02*
X8543991Y-13908174D01*
X8543991Y-13908174D02*
X8553515Y-13927222D01*
X8553515Y-13927222D02*
X8553515Y-14031984D01*
X8943991Y-13822460D02*
X8772563Y-14079603D01*
X9201134Y-13831984D02*
X9220182Y-13831984D01*
X9220182Y-13831984D02*
X9239229Y-13841508D01*
X9239229Y-13841508D02*
X9248753Y-13851031D01*
X9248753Y-13851031D02*
X9258277Y-13870079D01*
X9258277Y-13870079D02*
X9267801Y-13908174D01*
X9267801Y-13908174D02*
X9267801Y-13955793D01*
X9267801Y-13955793D02*
X9258277Y-13993888D01*
X9258277Y-13993888D02*
X9248753Y-14012936D01*
X9248753Y-14012936D02*
X9239229Y-14022460D01*
X9239229Y-14022460D02*
X9220182Y-14031984D01*
X9220182Y-14031984D02*
X9201134Y-14031984D01*
X9201134Y-14031984D02*
X9182087Y-14022460D01*
X9182087Y-14022460D02*
X9172563Y-14012936D01*
X9172563Y-14012936D02*
X9163039Y-13993888D01*
X9163039Y-13993888D02*
X9153515Y-13955793D01*
X9153515Y-13955793D02*
X9153515Y-13908174D01*
X9153515Y-13908174D02*
X9163039Y-13870079D01*
X9163039Y-13870079D02*
X9172563Y-13851031D01*
X9172563Y-13851031D02*
X9182087Y-13841508D01*
X9182087Y-13841508D02*
X9201134Y-13831984D01*
X9353515Y-14012936D02*
X9363039Y-14022460D01*
X9363039Y-14022460D02*
X9353515Y-14031984D01*
X9353515Y-14031984D02*
X9343991Y-14022460D01*
X9343991Y-14022460D02*
X9353515Y-14012936D01*
X9353515Y-14012936D02*
X9353515Y-14031984D01*
X9553515Y-14031984D02*
X9439229Y-14031984D01*
X9496372Y-14031984D02*
X9496372Y-13831984D01*
X9496372Y-13831984D02*
X9477325Y-13860555D01*
X9477325Y-13860555D02*
X9458277Y-13879603D01*
X9458277Y-13879603D02*
X9439229Y-13889127D01*
X9620182Y-13831984D02*
X9753515Y-13831984D01*
X9753515Y-13831984D02*
X9667801Y-14031984D01*
X9810658Y-13831984D02*
X9943991Y-13831984D01*
X9943991Y-13831984D02*
X9858277Y-14031984D01*
X10010658Y-13851031D02*
X10020182Y-13841508D01*
X10020182Y-13841508D02*
X10039229Y-13831984D01*
X10039229Y-13831984D02*
X10086849Y-13831984D01*
X10086849Y-13831984D02*
X10105896Y-13841508D01*
X10105896Y-13841508D02*
X10115420Y-13851031D01*
X10115420Y-13851031D02*
X10124944Y-13870079D01*
X10124944Y-13870079D02*
X10124944Y-13889127D01*
X10124944Y-13889127D02*
X10115420Y-13917698D01*
X10115420Y-13917698D02*
X10001134Y-14031984D01*
X10001134Y-14031984D02*
X10124944Y-14031984D01*
X10201134Y-13831984D02*
X10201134Y-13870079D01*
X10277325Y-13831984D02*
X10277325Y-13870079D01*
X10572563Y-14108174D02*
X10563039Y-14098650D01*
X10563039Y-14098650D02*
X10543991Y-14070079D01*
X10543991Y-14070079D02*
X10534468Y-14051031D01*
X10534468Y-14051031D02*
X10524944Y-14022460D01*
X10524944Y-14022460D02*
X10515420Y-13974841D01*
X10515420Y-13974841D02*
X10515420Y-13936746D01*
X10515420Y-13936746D02*
X10524944Y-13889127D01*
X10524944Y-13889127D02*
X10534468Y-13860555D01*
X10534468Y-13860555D02*
X10543991Y-13841508D01*
X10543991Y-13841508D02*
X10563039Y-13812936D01*
X10563039Y-13812936D02*
X10572563Y-13803412D01*
X10734468Y-13898650D02*
X10734468Y-14031984D01*
X10686849Y-13822460D02*
X10639230Y-13965317D01*
X10639230Y-13965317D02*
X10763039Y-13965317D01*
X10991611Y-14031984D02*
X10991611Y-13831984D01*
X11077325Y-14031984D02*
X11077325Y-13927222D01*
X11077325Y-13927222D02*
X11067801Y-13908174D01*
X11067801Y-13908174D02*
X11048753Y-13898650D01*
X11048753Y-13898650D02*
X11020182Y-13898650D01*
X11020182Y-13898650D02*
X11001134Y-13908174D01*
X11001134Y-13908174D02*
X10991611Y-13917698D01*
X11201134Y-14031984D02*
X11182087Y-14022460D01*
X11182087Y-14022460D02*
X11172563Y-14012936D01*
X11172563Y-14012936D02*
X11163039Y-13993888D01*
X11163039Y-13993888D02*
X11163039Y-13936746D01*
X11163039Y-13936746D02*
X11172563Y-13917698D01*
X11172563Y-13917698D02*
X11182087Y-13908174D01*
X11182087Y-13908174D02*
X11201134Y-13898650D01*
X11201134Y-13898650D02*
X11229706Y-13898650D01*
X11229706Y-13898650D02*
X11248753Y-13908174D01*
X11248753Y-13908174D02*
X11258277Y-13917698D01*
X11258277Y-13917698D02*
X11267801Y-13936746D01*
X11267801Y-13936746D02*
X11267801Y-13993888D01*
X11267801Y-13993888D02*
X11258277Y-14012936D01*
X11258277Y-14012936D02*
X11248753Y-14022460D01*
X11248753Y-14022460D02*
X11229706Y-14031984D01*
X11229706Y-14031984D02*
X11201134Y-14031984D01*
X11382087Y-14031984D02*
X11363039Y-14022460D01*
X11363039Y-14022460D02*
X11353515Y-14003412D01*
X11353515Y-14003412D02*
X11353515Y-13831984D01*
X11534468Y-14022460D02*
X11515420Y-14031984D01*
X11515420Y-14031984D02*
X11477325Y-14031984D01*
X11477325Y-14031984D02*
X11458277Y-14022460D01*
X11458277Y-14022460D02*
X11448753Y-14003412D01*
X11448753Y-14003412D02*
X11448753Y-13927222D01*
X11448753Y-13927222D02*
X11458277Y-13908174D01*
X11458277Y-13908174D02*
X11477325Y-13898650D01*
X11477325Y-13898650D02*
X11515420Y-13898650D01*
X11515420Y-13898650D02*
X11534468Y-13908174D01*
X11534468Y-13908174D02*
X11543991Y-13927222D01*
X11543991Y-13927222D02*
X11543991Y-13946269D01*
X11543991Y-13946269D02*
X11448753Y-13965317D01*
X11620182Y-14022460D02*
X11639230Y-14031984D01*
X11639230Y-14031984D02*
X11677325Y-14031984D01*
X11677325Y-14031984D02*
X11696372Y-14022460D01*
X11696372Y-14022460D02*
X11705896Y-14003412D01*
X11705896Y-14003412D02*
X11705896Y-13993888D01*
X11705896Y-13993888D02*
X11696372Y-13974841D01*
X11696372Y-13974841D02*
X11677325Y-13965317D01*
X11677325Y-13965317D02*
X11648753Y-13965317D01*
X11648753Y-13965317D02*
X11629706Y-13955793D01*
X11629706Y-13955793D02*
X11620182Y-13936746D01*
X11620182Y-13936746D02*
X11620182Y-13927222D01*
X11620182Y-13927222D02*
X11629706Y-13908174D01*
X11629706Y-13908174D02*
X11648753Y-13898650D01*
X11648753Y-13898650D02*
X11677325Y-13898650D01*
X11677325Y-13898650D02*
X11696372Y-13908174D01*
X11772563Y-14108174D02*
X11782087Y-14098650D01*
X11782087Y-14098650D02*
X11801134Y-14070079D01*
X11801134Y-14070079D02*
X11810658Y-14051031D01*
X11810658Y-14051031D02*
X11820182Y-14022460D01*
X11820182Y-14022460D02*
X11829706Y-13974841D01*
X11829706Y-13974841D02*
X11829706Y-13936746D01*
X11829706Y-13936746D02*
X11820182Y-13889127D01*
X11820182Y-13889127D02*
X11810658Y-13860555D01*
X11810658Y-13860555D02*
X11801134Y-13841508D01*
X11801134Y-13841508D02*
X11782087Y-13812936D01*
X11782087Y-13812936D02*
X11772563Y-13803412D01*
X6897500Y-14360500D02*
X6997500Y-14260500D01*
X6897500Y-14160500D01*
X6797500Y-14260500D01*
X6897500Y-14360500D01*
X7239229Y-14151984D02*
X7363039Y-14151984D01*
X7363039Y-14151984D02*
X7296372Y-14228174D01*
X7296372Y-14228174D02*
X7324943Y-14228174D01*
X7324943Y-14228174D02*
X7343991Y-14237698D01*
X7343991Y-14237698D02*
X7353515Y-14247222D01*
X7353515Y-14247222D02*
X7363039Y-14266269D01*
X7363039Y-14266269D02*
X7363039Y-14313888D01*
X7363039Y-14313888D02*
X7353515Y-14332936D01*
X7353515Y-14332936D02*
X7343991Y-14342460D01*
X7343991Y-14342460D02*
X7324943Y-14351984D01*
X7324943Y-14351984D02*
X7267801Y-14351984D01*
X7267801Y-14351984D02*
X7248753Y-14342460D01*
X7248753Y-14342460D02*
X7239229Y-14332936D01*
X7448753Y-14332936D02*
X7458277Y-14342460D01*
X7458277Y-14342460D02*
X7448753Y-14351984D01*
X7448753Y-14351984D02*
X7439229Y-14342460D01*
X7439229Y-14342460D02*
X7448753Y-14332936D01*
X7448753Y-14332936D02*
X7448753Y-14351984D01*
X7534467Y-14171031D02*
X7543991Y-14161508D01*
X7543991Y-14161508D02*
X7563039Y-14151984D01*
X7563039Y-14151984D02*
X7610658Y-14151984D01*
X7610658Y-14151984D02*
X7629705Y-14161508D01*
X7629705Y-14161508D02*
X7639229Y-14171031D01*
X7639229Y-14171031D02*
X7648753Y-14190079D01*
X7648753Y-14190079D02*
X7648753Y-14209127D01*
X7648753Y-14209127D02*
X7639229Y-14237698D01*
X7639229Y-14237698D02*
X7524943Y-14351984D01*
X7524943Y-14351984D02*
X7648753Y-14351984D01*
X7772562Y-14151984D02*
X7791610Y-14151984D01*
X7791610Y-14151984D02*
X7810658Y-14161508D01*
X7810658Y-14161508D02*
X7820182Y-14171031D01*
X7820182Y-14171031D02*
X7829705Y-14190079D01*
X7829705Y-14190079D02*
X7839229Y-14228174D01*
X7839229Y-14228174D02*
X7839229Y-14275793D01*
X7839229Y-14275793D02*
X7829705Y-14313888D01*
X7829705Y-14313888D02*
X7820182Y-14332936D01*
X7820182Y-14332936D02*
X7810658Y-14342460D01*
X7810658Y-14342460D02*
X7791610Y-14351984D01*
X7791610Y-14351984D02*
X7772562Y-14351984D01*
X7772562Y-14351984D02*
X7753515Y-14342460D01*
X7753515Y-14342460D02*
X7743991Y-14332936D01*
X7743991Y-14332936D02*
X7734467Y-14313888D01*
X7734467Y-14313888D02*
X7724943Y-14275793D01*
X7724943Y-14275793D02*
X7724943Y-14228174D01*
X7724943Y-14228174D02*
X7734467Y-14190079D01*
X7734467Y-14190079D02*
X7743991Y-14171031D01*
X7743991Y-14171031D02*
X7753515Y-14161508D01*
X7753515Y-14161508D02*
X7772562Y-14151984D01*
X7963039Y-14151984D02*
X7982086Y-14151984D01*
X7982086Y-14151984D02*
X8001134Y-14161508D01*
X8001134Y-14161508D02*
X8010658Y-14171031D01*
X8010658Y-14171031D02*
X8020182Y-14190079D01*
X8020182Y-14190079D02*
X8029705Y-14228174D01*
X8029705Y-14228174D02*
X8029705Y-14275793D01*
X8029705Y-14275793D02*
X8020182Y-14313888D01*
X8020182Y-14313888D02*
X8010658Y-14332936D01*
X8010658Y-14332936D02*
X8001134Y-14342460D01*
X8001134Y-14342460D02*
X7982086Y-14351984D01*
X7982086Y-14351984D02*
X7963039Y-14351984D01*
X7963039Y-14351984D02*
X7943991Y-14342460D01*
X7943991Y-14342460D02*
X7934467Y-14332936D01*
X7934467Y-14332936D02*
X7924943Y-14313888D01*
X7924943Y-14313888D02*
X7915420Y-14275793D01*
X7915420Y-14275793D02*
X7915420Y-14228174D01*
X7915420Y-14228174D02*
X7924943Y-14190079D01*
X7924943Y-14190079D02*
X7934467Y-14171031D01*
X7934467Y-14171031D02*
X7943991Y-14161508D01*
X7943991Y-14161508D02*
X7963039Y-14151984D01*
X8115420Y-14351984D02*
X8115420Y-14218650D01*
X8115420Y-14237698D02*
X8124943Y-14228174D01*
X8124943Y-14228174D02*
X8143991Y-14218650D01*
X8143991Y-14218650D02*
X8172563Y-14218650D01*
X8172563Y-14218650D02*
X8191610Y-14228174D01*
X8191610Y-14228174D02*
X8201134Y-14247222D01*
X8201134Y-14247222D02*
X8201134Y-14351984D01*
X8201134Y-14247222D02*
X8210658Y-14228174D01*
X8210658Y-14228174D02*
X8229705Y-14218650D01*
X8229705Y-14218650D02*
X8258277Y-14218650D01*
X8258277Y-14218650D02*
X8277324Y-14228174D01*
X8277324Y-14228174D02*
X8286848Y-14247222D01*
X8286848Y-14247222D02*
X8286848Y-14351984D01*
X8382086Y-14351984D02*
X8382086Y-14218650D01*
X8382086Y-14237698D02*
X8391610Y-14228174D01*
X8391610Y-14228174D02*
X8410658Y-14218650D01*
X8410658Y-14218650D02*
X8439229Y-14218650D01*
X8439229Y-14218650D02*
X8458277Y-14228174D01*
X8458277Y-14228174D02*
X8467801Y-14247222D01*
X8467801Y-14247222D02*
X8467801Y-14351984D01*
X8467801Y-14247222D02*
X8477325Y-14228174D01*
X8477325Y-14228174D02*
X8496372Y-14218650D01*
X8496372Y-14218650D02*
X8524944Y-14218650D01*
X8524944Y-14218650D02*
X8543991Y-14228174D01*
X8543991Y-14228174D02*
X8553515Y-14247222D01*
X8553515Y-14247222D02*
X8553515Y-14351984D01*
X8943991Y-14142460D02*
X8772563Y-14399603D01*
X9201134Y-14151984D02*
X9220182Y-14151984D01*
X9220182Y-14151984D02*
X9239229Y-14161508D01*
X9239229Y-14161508D02*
X9248753Y-14171031D01*
X9248753Y-14171031D02*
X9258277Y-14190079D01*
X9258277Y-14190079D02*
X9267801Y-14228174D01*
X9267801Y-14228174D02*
X9267801Y-14275793D01*
X9267801Y-14275793D02*
X9258277Y-14313888D01*
X9258277Y-14313888D02*
X9248753Y-14332936D01*
X9248753Y-14332936D02*
X9239229Y-14342460D01*
X9239229Y-14342460D02*
X9220182Y-14351984D01*
X9220182Y-14351984D02*
X9201134Y-14351984D01*
X9201134Y-14351984D02*
X9182087Y-14342460D01*
X9182087Y-14342460D02*
X9172563Y-14332936D01*
X9172563Y-14332936D02*
X9163039Y-14313888D01*
X9163039Y-14313888D02*
X9153515Y-14275793D01*
X9153515Y-14275793D02*
X9153515Y-14228174D01*
X9153515Y-14228174D02*
X9163039Y-14190079D01*
X9163039Y-14190079D02*
X9172563Y-14171031D01*
X9172563Y-14171031D02*
X9182087Y-14161508D01*
X9182087Y-14161508D02*
X9201134Y-14151984D01*
X9353515Y-14332936D02*
X9363039Y-14342460D01*
X9363039Y-14342460D02*
X9353515Y-14351984D01*
X9353515Y-14351984D02*
X9343991Y-14342460D01*
X9343991Y-14342460D02*
X9353515Y-14332936D01*
X9353515Y-14332936D02*
X9353515Y-14351984D01*
X9553515Y-14351984D02*
X9439229Y-14351984D01*
X9496372Y-14351984D02*
X9496372Y-14151984D01*
X9496372Y-14151984D02*
X9477325Y-14180555D01*
X9477325Y-14180555D02*
X9458277Y-14199603D01*
X9458277Y-14199603D02*
X9439229Y-14209127D01*
X9629706Y-14171031D02*
X9639229Y-14161508D01*
X9639229Y-14161508D02*
X9658277Y-14151984D01*
X9658277Y-14151984D02*
X9705896Y-14151984D01*
X9705896Y-14151984D02*
X9724944Y-14161508D01*
X9724944Y-14161508D02*
X9734468Y-14171031D01*
X9734468Y-14171031D02*
X9743991Y-14190079D01*
X9743991Y-14190079D02*
X9743991Y-14209127D01*
X9743991Y-14209127D02*
X9734468Y-14237698D01*
X9734468Y-14237698D02*
X9620182Y-14351984D01*
X9620182Y-14351984D02*
X9743991Y-14351984D01*
X9915420Y-14151984D02*
X9877325Y-14151984D01*
X9877325Y-14151984D02*
X9858277Y-14161508D01*
X9858277Y-14161508D02*
X9848753Y-14171031D01*
X9848753Y-14171031D02*
X9829706Y-14199603D01*
X9829706Y-14199603D02*
X9820182Y-14237698D01*
X9820182Y-14237698D02*
X9820182Y-14313888D01*
X9820182Y-14313888D02*
X9829706Y-14332936D01*
X9829706Y-14332936D02*
X9839229Y-14342460D01*
X9839229Y-14342460D02*
X9858277Y-14351984D01*
X9858277Y-14351984D02*
X9896372Y-14351984D01*
X9896372Y-14351984D02*
X9915420Y-14342460D01*
X9915420Y-14342460D02*
X9924944Y-14332936D01*
X9924944Y-14332936D02*
X9934468Y-14313888D01*
X9934468Y-14313888D02*
X9934468Y-14266269D01*
X9934468Y-14266269D02*
X9924944Y-14247222D01*
X9924944Y-14247222D02*
X9915420Y-14237698D01*
X9915420Y-14237698D02*
X9896372Y-14228174D01*
X9896372Y-14228174D02*
X9858277Y-14228174D01*
X9858277Y-14228174D02*
X9839229Y-14237698D01*
X9839229Y-14237698D02*
X9829706Y-14247222D01*
X9829706Y-14247222D02*
X9820182Y-14266269D01*
X10058277Y-14151984D02*
X10077325Y-14151984D01*
X10077325Y-14151984D02*
X10096372Y-14161508D01*
X10096372Y-14161508D02*
X10105896Y-14171031D01*
X10105896Y-14171031D02*
X10115420Y-14190079D01*
X10115420Y-14190079D02*
X10124944Y-14228174D01*
X10124944Y-14228174D02*
X10124944Y-14275793D01*
X10124944Y-14275793D02*
X10115420Y-14313888D01*
X10115420Y-14313888D02*
X10105896Y-14332936D01*
X10105896Y-14332936D02*
X10096372Y-14342460D01*
X10096372Y-14342460D02*
X10077325Y-14351984D01*
X10077325Y-14351984D02*
X10058277Y-14351984D01*
X10058277Y-14351984D02*
X10039229Y-14342460D01*
X10039229Y-14342460D02*
X10029706Y-14332936D01*
X10029706Y-14332936D02*
X10020182Y-14313888D01*
X10020182Y-14313888D02*
X10010658Y-14275793D01*
X10010658Y-14275793D02*
X10010658Y-14228174D01*
X10010658Y-14228174D02*
X10020182Y-14190079D01*
X10020182Y-14190079D02*
X10029706Y-14171031D01*
X10029706Y-14171031D02*
X10039229Y-14161508D01*
X10039229Y-14161508D02*
X10058277Y-14151984D01*
X10201134Y-14151984D02*
X10201134Y-14190079D01*
X10277325Y-14151984D02*
X10277325Y-14190079D01*
X10572563Y-14428174D02*
X10563039Y-14418650D01*
X10563039Y-14418650D02*
X10543991Y-14390079D01*
X10543991Y-14390079D02*
X10534468Y-14371031D01*
X10534468Y-14371031D02*
X10524944Y-14342460D01*
X10524944Y-14342460D02*
X10515420Y-14294841D01*
X10515420Y-14294841D02*
X10515420Y-14256746D01*
X10515420Y-14256746D02*
X10524944Y-14209127D01*
X10524944Y-14209127D02*
X10534468Y-14180555D01*
X10534468Y-14180555D02*
X10543991Y-14161508D01*
X10543991Y-14161508D02*
X10563039Y-14132936D01*
X10563039Y-14132936D02*
X10572563Y-14123412D01*
X10734468Y-14218650D02*
X10734468Y-14351984D01*
X10686849Y-14142460D02*
X10639230Y-14285317D01*
X10639230Y-14285317D02*
X10763039Y-14285317D01*
X10991611Y-14351984D02*
X10991611Y-14151984D01*
X11077325Y-14351984D02*
X11077325Y-14247222D01*
X11077325Y-14247222D02*
X11067801Y-14228174D01*
X11067801Y-14228174D02*
X11048753Y-14218650D01*
X11048753Y-14218650D02*
X11020182Y-14218650D01*
X11020182Y-14218650D02*
X11001134Y-14228174D01*
X11001134Y-14228174D02*
X10991611Y-14237698D01*
X11201134Y-14351984D02*
X11182087Y-14342460D01*
X11182087Y-14342460D02*
X11172563Y-14332936D01*
X11172563Y-14332936D02*
X11163039Y-14313888D01*
X11163039Y-14313888D02*
X11163039Y-14256746D01*
X11163039Y-14256746D02*
X11172563Y-14237698D01*
X11172563Y-14237698D02*
X11182087Y-14228174D01*
X11182087Y-14228174D02*
X11201134Y-14218650D01*
X11201134Y-14218650D02*
X11229706Y-14218650D01*
X11229706Y-14218650D02*
X11248753Y-14228174D01*
X11248753Y-14228174D02*
X11258277Y-14237698D01*
X11258277Y-14237698D02*
X11267801Y-14256746D01*
X11267801Y-14256746D02*
X11267801Y-14313888D01*
X11267801Y-14313888D02*
X11258277Y-14332936D01*
X11258277Y-14332936D02*
X11248753Y-14342460D01*
X11248753Y-14342460D02*
X11229706Y-14351984D01*
X11229706Y-14351984D02*
X11201134Y-14351984D01*
X11382087Y-14351984D02*
X11363039Y-14342460D01*
X11363039Y-14342460D02*
X11353515Y-14323412D01*
X11353515Y-14323412D02*
X11353515Y-14151984D01*
X11534468Y-14342460D02*
X11515420Y-14351984D01*
X11515420Y-14351984D02*
X11477325Y-14351984D01*
X11477325Y-14351984D02*
X11458277Y-14342460D01*
X11458277Y-14342460D02*
X11448753Y-14323412D01*
X11448753Y-14323412D02*
X11448753Y-14247222D01*
X11448753Y-14247222D02*
X11458277Y-14228174D01*
X11458277Y-14228174D02*
X11477325Y-14218650D01*
X11477325Y-14218650D02*
X11515420Y-14218650D01*
X11515420Y-14218650D02*
X11534468Y-14228174D01*
X11534468Y-14228174D02*
X11543991Y-14247222D01*
X11543991Y-14247222D02*
X11543991Y-14266269D01*
X11543991Y-14266269D02*
X11448753Y-14285317D01*
X11620182Y-14342460D02*
X11639230Y-14351984D01*
X11639230Y-14351984D02*
X11677325Y-14351984D01*
X11677325Y-14351984D02*
X11696372Y-14342460D01*
X11696372Y-14342460D02*
X11705896Y-14323412D01*
X11705896Y-14323412D02*
X11705896Y-14313888D01*
X11705896Y-14313888D02*
X11696372Y-14294841D01*
X11696372Y-14294841D02*
X11677325Y-14285317D01*
X11677325Y-14285317D02*
X11648753Y-14285317D01*
X11648753Y-14285317D02*
X11629706Y-14275793D01*
X11629706Y-14275793D02*
X11620182Y-14256746D01*
X11620182Y-14256746D02*
X11620182Y-14247222D01*
X11620182Y-14247222D02*
X11629706Y-14228174D01*
X11629706Y-14228174D02*
X11648753Y-14218650D01*
X11648753Y-14218650D02*
X11677325Y-14218650D01*
X11677325Y-14218650D02*
X11696372Y-14228174D01*
X11772563Y-14428174D02*
X11782087Y-14418650D01*
X11782087Y-14418650D02*
X11801134Y-14390079D01*
X11801134Y-14390079D02*
X11810658Y-14371031D01*
X11810658Y-14371031D02*
X11820182Y-14342460D01*
X11820182Y-14342460D02*
X11829706Y-14294841D01*
X11829706Y-14294841D02*
X11829706Y-14256746D01*
X11829706Y-14256746D02*
X11820182Y-14209127D01*
X11820182Y-14209127D02*
X11810658Y-14180555D01*
X11810658Y-14180555D02*
X11801134Y-14161508D01*
X11801134Y-14161508D02*
X11782087Y-14132936D01*
X11782087Y-14132936D02*
X11772563Y-14123412D01*
X12134468Y-14428174D02*
X12124944Y-14418650D01*
X12124944Y-14418650D02*
X12105896Y-14390079D01*
X12105896Y-14390079D02*
X12096372Y-14371031D01*
X12096372Y-14371031D02*
X12086849Y-14342460D01*
X12086849Y-14342460D02*
X12077325Y-14294841D01*
X12077325Y-14294841D02*
X12077325Y-14256746D01*
X12077325Y-14256746D02*
X12086849Y-14209127D01*
X12086849Y-14209127D02*
X12096372Y-14180555D01*
X12096372Y-14180555D02*
X12105896Y-14161508D01*
X12105896Y-14161508D02*
X12124944Y-14132936D01*
X12124944Y-14132936D02*
X12134468Y-14123412D01*
X12210658Y-14218650D02*
X12210658Y-14351984D01*
X12210658Y-14237698D02*
X12220182Y-14228174D01*
X12220182Y-14228174D02*
X12239230Y-14218650D01*
X12239230Y-14218650D02*
X12267801Y-14218650D01*
X12267801Y-14218650D02*
X12286849Y-14228174D01*
X12286849Y-14228174D02*
X12296372Y-14247222D01*
X12296372Y-14247222D02*
X12296372Y-14351984D01*
X12420182Y-14351984D02*
X12401134Y-14342460D01*
X12401134Y-14342460D02*
X12391611Y-14332936D01*
X12391611Y-14332936D02*
X12382087Y-14313888D01*
X12382087Y-14313888D02*
X12382087Y-14256746D01*
X12382087Y-14256746D02*
X12391611Y-14237698D01*
X12391611Y-14237698D02*
X12401134Y-14228174D01*
X12401134Y-14228174D02*
X12420182Y-14218650D01*
X12420182Y-14218650D02*
X12448753Y-14218650D01*
X12448753Y-14218650D02*
X12467801Y-14228174D01*
X12467801Y-14228174D02*
X12477325Y-14237698D01*
X12477325Y-14237698D02*
X12486849Y-14256746D01*
X12486849Y-14256746D02*
X12486849Y-14313888D01*
X12486849Y-14313888D02*
X12477325Y-14332936D01*
X12477325Y-14332936D02*
X12467801Y-14342460D01*
X12467801Y-14342460D02*
X12448753Y-14351984D01*
X12448753Y-14351984D02*
X12420182Y-14351984D01*
X12543992Y-14218650D02*
X12620182Y-14218650D01*
X12572563Y-14151984D02*
X12572563Y-14323412D01*
X12572563Y-14323412D02*
X12582087Y-14342460D01*
X12582087Y-14342460D02*
X12601134Y-14351984D01*
X12601134Y-14351984D02*
X12620182Y-14351984D01*
X12839230Y-14218650D02*
X12839230Y-14418650D01*
X12839230Y-14228174D02*
X12858277Y-14218650D01*
X12858277Y-14218650D02*
X12896373Y-14218650D01*
X12896373Y-14218650D02*
X12915420Y-14228174D01*
X12915420Y-14228174D02*
X12924944Y-14237698D01*
X12924944Y-14237698D02*
X12934468Y-14256746D01*
X12934468Y-14256746D02*
X12934468Y-14313888D01*
X12934468Y-14313888D02*
X12924944Y-14332936D01*
X12924944Y-14332936D02*
X12915420Y-14342460D01*
X12915420Y-14342460D02*
X12896373Y-14351984D01*
X12896373Y-14351984D02*
X12858277Y-14351984D01*
X12858277Y-14351984D02*
X12839230Y-14342460D01*
X13048753Y-14351984D02*
X13029706Y-14342460D01*
X13029706Y-14342460D02*
X13020182Y-14323412D01*
X13020182Y-14323412D02*
X13020182Y-14151984D01*
X13210658Y-14351984D02*
X13210658Y-14247222D01*
X13210658Y-14247222D02*
X13201134Y-14228174D01*
X13201134Y-14228174D02*
X13182087Y-14218650D01*
X13182087Y-14218650D02*
X13143992Y-14218650D01*
X13143992Y-14218650D02*
X13124944Y-14228174D01*
X13210658Y-14342460D02*
X13191611Y-14351984D01*
X13191611Y-14351984D02*
X13143992Y-14351984D01*
X13143992Y-14351984D02*
X13124944Y-14342460D01*
X13124944Y-14342460D02*
X13115420Y-14323412D01*
X13115420Y-14323412D02*
X13115420Y-14304365D01*
X13115420Y-14304365D02*
X13124944Y-14285317D01*
X13124944Y-14285317D02*
X13143992Y-14275793D01*
X13143992Y-14275793D02*
X13191611Y-14275793D01*
X13191611Y-14275793D02*
X13210658Y-14266269D01*
X13277325Y-14218650D02*
X13353515Y-14218650D01*
X13305896Y-14151984D02*
X13305896Y-14323412D01*
X13305896Y-14323412D02*
X13315420Y-14342460D01*
X13315420Y-14342460D02*
X13334468Y-14351984D01*
X13334468Y-14351984D02*
X13353515Y-14351984D01*
X13496373Y-14342460D02*
X13477325Y-14351984D01*
X13477325Y-14351984D02*
X13439230Y-14351984D01*
X13439230Y-14351984D02*
X13420182Y-14342460D01*
X13420182Y-14342460D02*
X13410658Y-14323412D01*
X13410658Y-14323412D02*
X13410658Y-14247222D01*
X13410658Y-14247222D02*
X13420182Y-14228174D01*
X13420182Y-14228174D02*
X13439230Y-14218650D01*
X13439230Y-14218650D02*
X13477325Y-14218650D01*
X13477325Y-14218650D02*
X13496373Y-14228174D01*
X13496373Y-14228174D02*
X13505896Y-14247222D01*
X13505896Y-14247222D02*
X13505896Y-14266269D01*
X13505896Y-14266269D02*
X13410658Y-14285317D01*
X13677325Y-14351984D02*
X13677325Y-14151984D01*
X13677325Y-14342460D02*
X13658277Y-14351984D01*
X13658277Y-14351984D02*
X13620182Y-14351984D01*
X13620182Y-14351984D02*
X13601134Y-14342460D01*
X13601134Y-14342460D02*
X13591611Y-14332936D01*
X13591611Y-14332936D02*
X13582087Y-14313888D01*
X13582087Y-14313888D02*
X13582087Y-14256746D01*
X13582087Y-14256746D02*
X13591611Y-14237698D01*
X13591611Y-14237698D02*
X13601134Y-14228174D01*
X13601134Y-14228174D02*
X13620182Y-14218650D01*
X13620182Y-14218650D02*
X13658277Y-14218650D01*
X13658277Y-14218650D02*
X13677325Y-14228174D01*
X13753515Y-14428174D02*
X13763039Y-14418650D01*
X13763039Y-14418650D02*
X13782087Y-14390079D01*
X13782087Y-14390079D02*
X13791611Y-14371031D01*
X13791611Y-14371031D02*
X13801134Y-14342460D01*
X13801134Y-14342460D02*
X13810658Y-14294841D01*
X13810658Y-14294841D02*
X13810658Y-14256746D01*
X13810658Y-14256746D02*
X13801134Y-14209127D01*
X13801134Y-14209127D02*
X13791611Y-14180555D01*
X13791611Y-14180555D02*
X13782087Y-14161508D01*
X13782087Y-14161508D02*
X13763039Y-14132936D01*
X13763039Y-14132936D02*
X13753515Y-14123412D01*
X6797500Y-14480500D02*
X6997500Y-14680500D01*
X6997500Y-14480500D02*
X6797500Y-14680500D01*
X6997500Y-14580500D02*
G75*
G02*
X6797500Y-14580500I-100000J0D01*
G01*
X6797500Y-14580500D02*
G75*
G02*
X6997500Y-14580500I100000J0D01*
G01*
X7343991Y-14538650D02*
X7343991Y-14671984D01*
X7296372Y-14462460D02*
X7248753Y-14605317D01*
X7248753Y-14605317D02*
X7372562Y-14605317D01*
X7448753Y-14652936D02*
X7458277Y-14662460D01*
X7458277Y-14662460D02*
X7448753Y-14671984D01*
X7448753Y-14671984D02*
X7439229Y-14662460D01*
X7439229Y-14662460D02*
X7448753Y-14652936D01*
X7448753Y-14652936D02*
X7448753Y-14671984D01*
X7629705Y-14538650D02*
X7629705Y-14671984D01*
X7582086Y-14462460D02*
X7534467Y-14605317D01*
X7534467Y-14605317D02*
X7658277Y-14605317D01*
X7772562Y-14471984D02*
X7791610Y-14471984D01*
X7791610Y-14471984D02*
X7810658Y-14481508D01*
X7810658Y-14481508D02*
X7820182Y-14491031D01*
X7820182Y-14491031D02*
X7829705Y-14510079D01*
X7829705Y-14510079D02*
X7839229Y-14548174D01*
X7839229Y-14548174D02*
X7839229Y-14595793D01*
X7839229Y-14595793D02*
X7829705Y-14633888D01*
X7829705Y-14633888D02*
X7820182Y-14652936D01*
X7820182Y-14652936D02*
X7810658Y-14662460D01*
X7810658Y-14662460D02*
X7791610Y-14671984D01*
X7791610Y-14671984D02*
X7772562Y-14671984D01*
X7772562Y-14671984D02*
X7753515Y-14662460D01*
X7753515Y-14662460D02*
X7743991Y-14652936D01*
X7743991Y-14652936D02*
X7734467Y-14633888D01*
X7734467Y-14633888D02*
X7724943Y-14595793D01*
X7724943Y-14595793D02*
X7724943Y-14548174D01*
X7724943Y-14548174D02*
X7734467Y-14510079D01*
X7734467Y-14510079D02*
X7743991Y-14491031D01*
X7743991Y-14491031D02*
X7753515Y-14481508D01*
X7753515Y-14481508D02*
X7772562Y-14471984D01*
X7963039Y-14471984D02*
X7982086Y-14471984D01*
X7982086Y-14471984D02*
X8001134Y-14481508D01*
X8001134Y-14481508D02*
X8010658Y-14491031D01*
X8010658Y-14491031D02*
X8020182Y-14510079D01*
X8020182Y-14510079D02*
X8029705Y-14548174D01*
X8029705Y-14548174D02*
X8029705Y-14595793D01*
X8029705Y-14595793D02*
X8020182Y-14633888D01*
X8020182Y-14633888D02*
X8010658Y-14652936D01*
X8010658Y-14652936D02*
X8001134Y-14662460D01*
X8001134Y-14662460D02*
X7982086Y-14671984D01*
X7982086Y-14671984D02*
X7963039Y-14671984D01*
X7963039Y-14671984D02*
X7943991Y-14662460D01*
X7943991Y-14662460D02*
X7934467Y-14652936D01*
X7934467Y-14652936D02*
X7924943Y-14633888D01*
X7924943Y-14633888D02*
X7915420Y-14595793D01*
X7915420Y-14595793D02*
X7915420Y-14548174D01*
X7915420Y-14548174D02*
X7924943Y-14510079D01*
X7924943Y-14510079D02*
X7934467Y-14491031D01*
X7934467Y-14491031D02*
X7943991Y-14481508D01*
X7943991Y-14481508D02*
X7963039Y-14471984D01*
X8115420Y-14671984D02*
X8115420Y-14538650D01*
X8115420Y-14557698D02*
X8124943Y-14548174D01*
X8124943Y-14548174D02*
X8143991Y-14538650D01*
X8143991Y-14538650D02*
X8172563Y-14538650D01*
X8172563Y-14538650D02*
X8191610Y-14548174D01*
X8191610Y-14548174D02*
X8201134Y-14567222D01*
X8201134Y-14567222D02*
X8201134Y-14671984D01*
X8201134Y-14567222D02*
X8210658Y-14548174D01*
X8210658Y-14548174D02*
X8229705Y-14538650D01*
X8229705Y-14538650D02*
X8258277Y-14538650D01*
X8258277Y-14538650D02*
X8277324Y-14548174D01*
X8277324Y-14548174D02*
X8286848Y-14567222D01*
X8286848Y-14567222D02*
X8286848Y-14671984D01*
X8382086Y-14671984D02*
X8382086Y-14538650D01*
X8382086Y-14557698D02*
X8391610Y-14548174D01*
X8391610Y-14548174D02*
X8410658Y-14538650D01*
X8410658Y-14538650D02*
X8439229Y-14538650D01*
X8439229Y-14538650D02*
X8458277Y-14548174D01*
X8458277Y-14548174D02*
X8467801Y-14567222D01*
X8467801Y-14567222D02*
X8467801Y-14671984D01*
X8467801Y-14567222D02*
X8477325Y-14548174D01*
X8477325Y-14548174D02*
X8496372Y-14538650D01*
X8496372Y-14538650D02*
X8524944Y-14538650D01*
X8524944Y-14538650D02*
X8543991Y-14548174D01*
X8543991Y-14548174D02*
X8553515Y-14567222D01*
X8553515Y-14567222D02*
X8553515Y-14671984D01*
X8943991Y-14462460D02*
X8772563Y-14719603D01*
X9201134Y-14471984D02*
X9220182Y-14471984D01*
X9220182Y-14471984D02*
X9239229Y-14481508D01*
X9239229Y-14481508D02*
X9248753Y-14491031D01*
X9248753Y-14491031D02*
X9258277Y-14510079D01*
X9258277Y-14510079D02*
X9267801Y-14548174D01*
X9267801Y-14548174D02*
X9267801Y-14595793D01*
X9267801Y-14595793D02*
X9258277Y-14633888D01*
X9258277Y-14633888D02*
X9248753Y-14652936D01*
X9248753Y-14652936D02*
X9239229Y-14662460D01*
X9239229Y-14662460D02*
X9220182Y-14671984D01*
X9220182Y-14671984D02*
X9201134Y-14671984D01*
X9201134Y-14671984D02*
X9182087Y-14662460D01*
X9182087Y-14662460D02*
X9172563Y-14652936D01*
X9172563Y-14652936D02*
X9163039Y-14633888D01*
X9163039Y-14633888D02*
X9153515Y-14595793D01*
X9153515Y-14595793D02*
X9153515Y-14548174D01*
X9153515Y-14548174D02*
X9163039Y-14510079D01*
X9163039Y-14510079D02*
X9172563Y-14491031D01*
X9172563Y-14491031D02*
X9182087Y-14481508D01*
X9182087Y-14481508D02*
X9201134Y-14471984D01*
X9353515Y-14652936D02*
X9363039Y-14662460D01*
X9363039Y-14662460D02*
X9353515Y-14671984D01*
X9353515Y-14671984D02*
X9343991Y-14662460D01*
X9343991Y-14662460D02*
X9353515Y-14652936D01*
X9353515Y-14652936D02*
X9353515Y-14671984D01*
X9553515Y-14671984D02*
X9439229Y-14671984D01*
X9496372Y-14671984D02*
X9496372Y-14471984D01*
X9496372Y-14471984D02*
X9477325Y-14500555D01*
X9477325Y-14500555D02*
X9458277Y-14519603D01*
X9458277Y-14519603D02*
X9439229Y-14529127D01*
X9620182Y-14471984D02*
X9753515Y-14471984D01*
X9753515Y-14471984D02*
X9667801Y-14671984D01*
X9810658Y-14471984D02*
X9934468Y-14471984D01*
X9934468Y-14471984D02*
X9867801Y-14548174D01*
X9867801Y-14548174D02*
X9896372Y-14548174D01*
X9896372Y-14548174D02*
X9915420Y-14557698D01*
X9915420Y-14557698D02*
X9924944Y-14567222D01*
X9924944Y-14567222D02*
X9934468Y-14586269D01*
X9934468Y-14586269D02*
X9934468Y-14633888D01*
X9934468Y-14633888D02*
X9924944Y-14652936D01*
X9924944Y-14652936D02*
X9915420Y-14662460D01*
X9915420Y-14662460D02*
X9896372Y-14671984D01*
X9896372Y-14671984D02*
X9839229Y-14671984D01*
X9839229Y-14671984D02*
X9820182Y-14662460D01*
X9820182Y-14662460D02*
X9810658Y-14652936D01*
X10010658Y-14491031D02*
X10020182Y-14481508D01*
X10020182Y-14481508D02*
X10039229Y-14471984D01*
X10039229Y-14471984D02*
X10086849Y-14471984D01*
X10086849Y-14471984D02*
X10105896Y-14481508D01*
X10105896Y-14481508D02*
X10115420Y-14491031D01*
X10115420Y-14491031D02*
X10124944Y-14510079D01*
X10124944Y-14510079D02*
X10124944Y-14529127D01*
X10124944Y-14529127D02*
X10115420Y-14557698D01*
X10115420Y-14557698D02*
X10001134Y-14671984D01*
X10001134Y-14671984D02*
X10124944Y-14671984D01*
X10201134Y-14471984D02*
X10201134Y-14510079D01*
X10277325Y-14471984D02*
X10277325Y-14510079D01*
X10572563Y-14748174D02*
X10563039Y-14738650D01*
X10563039Y-14738650D02*
X10543991Y-14710079D01*
X10543991Y-14710079D02*
X10534468Y-14691031D01*
X10534468Y-14691031D02*
X10524944Y-14662460D01*
X10524944Y-14662460D02*
X10515420Y-14614841D01*
X10515420Y-14614841D02*
X10515420Y-14576746D01*
X10515420Y-14576746D02*
X10524944Y-14529127D01*
X10524944Y-14529127D02*
X10534468Y-14500555D01*
X10534468Y-14500555D02*
X10543991Y-14481508D01*
X10543991Y-14481508D02*
X10563039Y-14452936D01*
X10563039Y-14452936D02*
X10572563Y-14443412D01*
X10629706Y-14471984D02*
X10753515Y-14471984D01*
X10753515Y-14471984D02*
X10686849Y-14548174D01*
X10686849Y-14548174D02*
X10715420Y-14548174D01*
X10715420Y-14548174D02*
X10734468Y-14557698D01*
X10734468Y-14557698D02*
X10743991Y-14567222D01*
X10743991Y-14567222D02*
X10753515Y-14586269D01*
X10753515Y-14586269D02*
X10753515Y-14633888D01*
X10753515Y-14633888D02*
X10743991Y-14652936D01*
X10743991Y-14652936D02*
X10734468Y-14662460D01*
X10734468Y-14662460D02*
X10715420Y-14671984D01*
X10715420Y-14671984D02*
X10658277Y-14671984D01*
X10658277Y-14671984D02*
X10639230Y-14662460D01*
X10639230Y-14662460D02*
X10629706Y-14652936D01*
X10991611Y-14671984D02*
X10991611Y-14471984D01*
X11077325Y-14671984D02*
X11077325Y-14567222D01*
X11077325Y-14567222D02*
X11067801Y-14548174D01*
X11067801Y-14548174D02*
X11048753Y-14538650D01*
X11048753Y-14538650D02*
X11020182Y-14538650D01*
X11020182Y-14538650D02*
X11001134Y-14548174D01*
X11001134Y-14548174D02*
X10991611Y-14557698D01*
X11201134Y-14671984D02*
X11182087Y-14662460D01*
X11182087Y-14662460D02*
X11172563Y-14652936D01*
X11172563Y-14652936D02*
X11163039Y-14633888D01*
X11163039Y-14633888D02*
X11163039Y-14576746D01*
X11163039Y-14576746D02*
X11172563Y-14557698D01*
X11172563Y-14557698D02*
X11182087Y-14548174D01*
X11182087Y-14548174D02*
X11201134Y-14538650D01*
X11201134Y-14538650D02*
X11229706Y-14538650D01*
X11229706Y-14538650D02*
X11248753Y-14548174D01*
X11248753Y-14548174D02*
X11258277Y-14557698D01*
X11258277Y-14557698D02*
X11267801Y-14576746D01*
X11267801Y-14576746D02*
X11267801Y-14633888D01*
X11267801Y-14633888D02*
X11258277Y-14652936D01*
X11258277Y-14652936D02*
X11248753Y-14662460D01*
X11248753Y-14662460D02*
X11229706Y-14671984D01*
X11229706Y-14671984D02*
X11201134Y-14671984D01*
X11382087Y-14671984D02*
X11363039Y-14662460D01*
X11363039Y-14662460D02*
X11353515Y-14643412D01*
X11353515Y-14643412D02*
X11353515Y-14471984D01*
X11534468Y-14662460D02*
X11515420Y-14671984D01*
X11515420Y-14671984D02*
X11477325Y-14671984D01*
X11477325Y-14671984D02*
X11458277Y-14662460D01*
X11458277Y-14662460D02*
X11448753Y-14643412D01*
X11448753Y-14643412D02*
X11448753Y-14567222D01*
X11448753Y-14567222D02*
X11458277Y-14548174D01*
X11458277Y-14548174D02*
X11477325Y-14538650D01*
X11477325Y-14538650D02*
X11515420Y-14538650D01*
X11515420Y-14538650D02*
X11534468Y-14548174D01*
X11534468Y-14548174D02*
X11543991Y-14567222D01*
X11543991Y-14567222D02*
X11543991Y-14586269D01*
X11543991Y-14586269D02*
X11448753Y-14605317D01*
X11620182Y-14662460D02*
X11639230Y-14671984D01*
X11639230Y-14671984D02*
X11677325Y-14671984D01*
X11677325Y-14671984D02*
X11696372Y-14662460D01*
X11696372Y-14662460D02*
X11705896Y-14643412D01*
X11705896Y-14643412D02*
X11705896Y-14633888D01*
X11705896Y-14633888D02*
X11696372Y-14614841D01*
X11696372Y-14614841D02*
X11677325Y-14605317D01*
X11677325Y-14605317D02*
X11648753Y-14605317D01*
X11648753Y-14605317D02*
X11629706Y-14595793D01*
X11629706Y-14595793D02*
X11620182Y-14576746D01*
X11620182Y-14576746D02*
X11620182Y-14567222D01*
X11620182Y-14567222D02*
X11629706Y-14548174D01*
X11629706Y-14548174D02*
X11648753Y-14538650D01*
X11648753Y-14538650D02*
X11677325Y-14538650D01*
X11677325Y-14538650D02*
X11696372Y-14548174D01*
X11772563Y-14748174D02*
X11782087Y-14738650D01*
X11782087Y-14738650D02*
X11801134Y-14710079D01*
X11801134Y-14710079D02*
X11810658Y-14691031D01*
X11810658Y-14691031D02*
X11820182Y-14662460D01*
X11820182Y-14662460D02*
X11829706Y-14614841D01*
X11829706Y-14614841D02*
X11829706Y-14576746D01*
X11829706Y-14576746D02*
X11820182Y-14529127D01*
X11820182Y-14529127D02*
X11810658Y-14500555D01*
X11810658Y-14500555D02*
X11801134Y-14481508D01*
X11801134Y-14481508D02*
X11782087Y-14452936D01*
X11782087Y-14452936D02*
X11772563Y-14443412D01*
X12134468Y-14748174D02*
X12124944Y-14738650D01*
X12124944Y-14738650D02*
X12105896Y-14710079D01*
X12105896Y-14710079D02*
X12096372Y-14691031D01*
X12096372Y-14691031D02*
X12086849Y-14662460D01*
X12086849Y-14662460D02*
X12077325Y-14614841D01*
X12077325Y-14614841D02*
X12077325Y-14576746D01*
X12077325Y-14576746D02*
X12086849Y-14529127D01*
X12086849Y-14529127D02*
X12096372Y-14500555D01*
X12096372Y-14500555D02*
X12105896Y-14481508D01*
X12105896Y-14481508D02*
X12124944Y-14452936D01*
X12124944Y-14452936D02*
X12134468Y-14443412D01*
X12210658Y-14538650D02*
X12210658Y-14671984D01*
X12210658Y-14557698D02*
X12220182Y-14548174D01*
X12220182Y-14548174D02*
X12239230Y-14538650D01*
X12239230Y-14538650D02*
X12267801Y-14538650D01*
X12267801Y-14538650D02*
X12286849Y-14548174D01*
X12286849Y-14548174D02*
X12296372Y-14567222D01*
X12296372Y-14567222D02*
X12296372Y-14671984D01*
X12420182Y-14671984D02*
X12401134Y-14662460D01*
X12401134Y-14662460D02*
X12391611Y-14652936D01*
X12391611Y-14652936D02*
X12382087Y-14633888D01*
X12382087Y-14633888D02*
X12382087Y-14576746D01*
X12382087Y-14576746D02*
X12391611Y-14557698D01*
X12391611Y-14557698D02*
X12401134Y-14548174D01*
X12401134Y-14548174D02*
X12420182Y-14538650D01*
X12420182Y-14538650D02*
X12448753Y-14538650D01*
X12448753Y-14538650D02*
X12467801Y-14548174D01*
X12467801Y-14548174D02*
X12477325Y-14557698D01*
X12477325Y-14557698D02*
X12486849Y-14576746D01*
X12486849Y-14576746D02*
X12486849Y-14633888D01*
X12486849Y-14633888D02*
X12477325Y-14652936D01*
X12477325Y-14652936D02*
X12467801Y-14662460D01*
X12467801Y-14662460D02*
X12448753Y-14671984D01*
X12448753Y-14671984D02*
X12420182Y-14671984D01*
X12543992Y-14538650D02*
X12620182Y-14538650D01*
X12572563Y-14471984D02*
X12572563Y-14643412D01*
X12572563Y-14643412D02*
X12582087Y-14662460D01*
X12582087Y-14662460D02*
X12601134Y-14671984D01*
X12601134Y-14671984D02*
X12620182Y-14671984D01*
X12839230Y-14538650D02*
X12839230Y-14738650D01*
X12839230Y-14548174D02*
X12858277Y-14538650D01*
X12858277Y-14538650D02*
X12896373Y-14538650D01*
X12896373Y-14538650D02*
X12915420Y-14548174D01*
X12915420Y-14548174D02*
X12924944Y-14557698D01*
X12924944Y-14557698D02*
X12934468Y-14576746D01*
X12934468Y-14576746D02*
X12934468Y-14633888D01*
X12934468Y-14633888D02*
X12924944Y-14652936D01*
X12924944Y-14652936D02*
X12915420Y-14662460D01*
X12915420Y-14662460D02*
X12896373Y-14671984D01*
X12896373Y-14671984D02*
X12858277Y-14671984D01*
X12858277Y-14671984D02*
X12839230Y-14662460D01*
X13048753Y-14671984D02*
X13029706Y-14662460D01*
X13029706Y-14662460D02*
X13020182Y-14643412D01*
X13020182Y-14643412D02*
X13020182Y-14471984D01*
X13210658Y-14671984D02*
X13210658Y-14567222D01*
X13210658Y-14567222D02*
X13201134Y-14548174D01*
X13201134Y-14548174D02*
X13182087Y-14538650D01*
X13182087Y-14538650D02*
X13143992Y-14538650D01*
X13143992Y-14538650D02*
X13124944Y-14548174D01*
X13210658Y-14662460D02*
X13191611Y-14671984D01*
X13191611Y-14671984D02*
X13143992Y-14671984D01*
X13143992Y-14671984D02*
X13124944Y-14662460D01*
X13124944Y-14662460D02*
X13115420Y-14643412D01*
X13115420Y-14643412D02*
X13115420Y-14624365D01*
X13115420Y-14624365D02*
X13124944Y-14605317D01*
X13124944Y-14605317D02*
X13143992Y-14595793D01*
X13143992Y-14595793D02*
X13191611Y-14595793D01*
X13191611Y-14595793D02*
X13210658Y-14586269D01*
X13277325Y-14538650D02*
X13353515Y-14538650D01*
X13305896Y-14471984D02*
X13305896Y-14643412D01*
X13305896Y-14643412D02*
X13315420Y-14662460D01*
X13315420Y-14662460D02*
X13334468Y-14671984D01*
X13334468Y-14671984D02*
X13353515Y-14671984D01*
X13496373Y-14662460D02*
X13477325Y-14671984D01*
X13477325Y-14671984D02*
X13439230Y-14671984D01*
X13439230Y-14671984D02*
X13420182Y-14662460D01*
X13420182Y-14662460D02*
X13410658Y-14643412D01*
X13410658Y-14643412D02*
X13410658Y-14567222D01*
X13410658Y-14567222D02*
X13420182Y-14548174D01*
X13420182Y-14548174D02*
X13439230Y-14538650D01*
X13439230Y-14538650D02*
X13477325Y-14538650D01*
X13477325Y-14538650D02*
X13496373Y-14548174D01*
X13496373Y-14548174D02*
X13505896Y-14567222D01*
X13505896Y-14567222D02*
X13505896Y-14586269D01*
X13505896Y-14586269D02*
X13410658Y-14605317D01*
X13677325Y-14671984D02*
X13677325Y-14471984D01*
X13677325Y-14662460D02*
X13658277Y-14671984D01*
X13658277Y-14671984D02*
X13620182Y-14671984D01*
X13620182Y-14671984D02*
X13601134Y-14662460D01*
X13601134Y-14662460D02*
X13591611Y-14652936D01*
X13591611Y-14652936D02*
X13582087Y-14633888D01*
X13582087Y-14633888D02*
X13582087Y-14576746D01*
X13582087Y-14576746D02*
X13591611Y-14557698D01*
X13591611Y-14557698D02*
X13601134Y-14548174D01*
X13601134Y-14548174D02*
X13620182Y-14538650D01*
X13620182Y-14538650D02*
X13658277Y-14538650D01*
X13658277Y-14538650D02*
X13677325Y-14548174D01*
X13753515Y-14748174D02*
X13763039Y-14738650D01*
X13763039Y-14738650D02*
X13782087Y-14710079D01*
X13782087Y-14710079D02*
X13791611Y-14691031D01*
X13791611Y-14691031D02*
X13801134Y-14662460D01*
X13801134Y-14662460D02*
X13810658Y-14614841D01*
X13810658Y-14614841D02*
X13810658Y-14576746D01*
X13810658Y-14576746D02*
X13801134Y-14529127D01*
X13801134Y-14529127D02*
X13791611Y-14500555D01*
X13791611Y-14500555D02*
X13782087Y-14481508D01*
X13782087Y-14481508D02*
X13763039Y-14452936D01*
X13763039Y-14452936D02*
X13753515Y-14443412D01*
M02*
